<svg xmlns="http://www.w3.org/2000/svg" xmlns:xlink="http://www.w3.org/1999/xlink" width="200" height="200" viewBox="0 0 200 200">
  <defs>
    <clipPath id="clip-cloth">
      <rect width="200" height="200"/>
    </clipPath>
  </defs>
  <g id="cloth" clip-path="url(#clip-cloth)">
    <rect width="200" height="200" fill="rgba(255,255,255,0)"/>
    <g id="グループ_42" data-name="グループ 42">
      <path id="パス_233" data-name="パス 233" d="M108,0" transform="translate(0.5 0.5)" fill="none" stroke="#9a855d" stroke-width="20"/>
    </g>
    <g id="合体_14" data-name="合体 14" transform="translate(18389.791 307.001)" fill="#fff" stroke-linecap="round">
      <path d="M -18256.875 -144.0014343261719 L -18322.703125 -144.0014343261719 C -18325.4609375 -144.0014343261719 -18327.703125 -146.2444915771484 -18327.703125 -149.0015563964844 L -18327.703125 -207.1447601318359 L -18327.703125 -218.7856292724609 L -18336.146484375 -210.7709808349609 L -18336.763671875 -210.18505859375 L -18336.759765625 -210.1885375976563 C -18337.63671875 -209.3577880859375 -18338.826171875 -208.9002380371094 -18340.11328125 -208.9001617431641 C -18341.439453125 -208.9001159667969 -18342.677734375 -209.3827819824219 -18343.6015625 -210.2592926025391 L -18363.59375 -229.2443389892578 C -18364.447265625 -230.053466796875 -18364.916015625 -231.0998840332031 -18364.9140625 -232.1917572021484 C -18364.9140625 -233.2444610595703 -18364.47265625 -234.2432861328125 -18363.66796875 -235.0042572021484 L -18327.4921875 -269.3126525878906 C -18326.619140625 -270.1421508789063 -18325.427734375 -270.59912109375 -18324.142578125 -270.59912109375 C -18323.55859375 -270.59912109375 -18322.986328125 -270.5042724609375 -18322.44140625 -270.3173217773438 L -18321.65234375 -270.0475463867188 L -18320.8203125 -270.0475463867188 L -18312.9921875 -270.0475463867188 C -18310.033203125 -258.7247619628906 -18300.681640625 -250.6512603759766 -18289.7890625 -250.6512603759766 C -18278.892578125 -250.6512603759766 -18269.541015625 -258.7251586914063 -18266.583984375 -270.0475463867188 L -18260.0703125 -270.0475463867188 L -18259.259765625 -270.0475463867188 L -18258.4921875 -270.3031005859375 C -18257.962890625 -270.4791870117188 -18257.40625 -270.5684814453125 -18256.837890625 -270.5684814453125 C -18255.51953125 -270.5684814453125 -18254.29296875 -270.0935974121094 -18253.384765625 -269.2313537597656 L -18216.830078125 -234.5503082275391 C -18215.994140625 -233.7561798095703 -18215.53125 -232.7199401855469 -18215.53125 -231.6329345703125 C -18215.53125 -230.5459594726563 -18215.994140625 -229.5097045898438 -18216.830078125 -228.7150421142578 L -18236.830078125 -209.7387084960938 C -18237.740234375 -208.8756561279297 -18238.966796875 -208.4006805419922 -18240.28515625 -208.400634765625 C -18241.52734375 -208.4005889892578 -18242.701171875 -208.8278656005859 -18243.59375 -209.6037292480469 L -18251.875 -216.8079681396484 L -18251.875 -205.8313293457031 L -18251.875 -149.0015563964844 C -18251.875 -146.2444915771484 -18254.1171875 -144.0014343261719 -18256.875 -144.0014343261719 Z" stroke="none"/>
      <path d="M -18256.875 -149.0014190673828 L -18256.875 -149.0015716552734 L -18256.875 -205.8313598632813 L -18256.8359375 -227.7743835449219 L -18240.271484375 -213.3658294677734 L -18221.021484375 -231.6316070556641 L -18256.9140625 -265.5587463378906 L -18258.451171875 -265.0475463867188 L -18260.0703125 -265.0475463867188 L -18262.955078125 -265.0475463867188 C -18267.43359375 -253.5429534912109 -18277.8359375 -245.6512603759766 -18289.7890625 -245.6512603759766 C -18301.73828125 -245.6512603759766 -18312.138671875 -253.5429382324219 -18316.62109375 -265.0475463867188 L -18320.8203125 -265.0475463867188 L -18322.4765625 -265.1451416015625 L -18324.052734375 -265.6847229003906 L -18359.380859375 -232.1788635253906 L -18339.587890625 -214.3970489501953 L -18322.703125 -230.4272003173828 L -18322.703125 -207.1447601318359 L -18322.703125 -149.0014190673828 L -18256.875 -149.0014190673828 M -18256.875 -139.0014190673828 L -18322.703125 -139.0014190673828 C -18328.216796875 -139.0014190673828 -18332.703125 -143.4874420166016 -18332.703125 -149.0015716552734 L -18332.703125 -207.1447601318359 L -18333.3203125 -206.5588226318359 C -18335.19140625 -204.7855834960938 -18337.6484375 -203.9002990722656 -18340.11328125 -203.9001770019531 C -18342.615234375 -203.9000396728516 -18345.125 -204.8118286132813 -18347.04296875 -206.6325988769531 L -18367.037109375 -225.6185760498047 C -18370.845703125 -229.2332000732422 -18370.87890625 -235.0608520507813 -18367.107421875 -238.6339874267578 L -18330.93359375 -272.9405822753906 C -18329.064453125 -274.7137451171875 -18326.607421875 -275.5990905761719 -18324.142578125 -275.5990905761719 C -18323.01953125 -275.5990905761719 -18321.89453125 -275.4152221679688 -18320.8203125 -275.0475463867188 L -18308.830078125 -275.0475463867188 C -18307.6875 -263.9869995117188 -18299.50390625 -255.6512603759766 -18289.7890625 -255.6512603759766 C -18280.07421875 -255.6512603759766 -18271.88671875 -263.9869995117188 -18270.748046875 -275.0475463867188 L -18260.0703125 -275.0475463867188 C -18259.025390625 -275.3948059082031 -18257.931640625 -275.5684814453125 -18256.837890625 -275.5684814453125 C -18254.341796875 -275.5684814453125 -18251.845703125 -274.6648864746094 -18249.94140625 -272.8575744628906 L -18213.388671875 -238.1775360107422 C -18209.580078125 -234.5629119873047 -18209.580078125 -228.7029724121094 -18213.388671875 -225.0883483886719 L -18233.388671875 -206.1116027832031 C -18235.29296875 -204.3043975830078 -18237.7890625 -203.4007415771484 -18240.28515625 -203.4006500244141 C -18242.6484375 -203.4005584716797 -18245.01171875 -204.2107849121094 -18246.875 -205.8313598632813 L -18246.875 -149.0015716552734 C -18246.875 -143.4874420166016 -18251.361328125 -139.0014190673828 -18256.875 -139.0014190673828 Z" stroke="none" fill="#ff7ab4"/>
    </g>
  </g>
</svg>
