<svg xmlns="http://www.w3.org/2000/svg" xmlns:xlink="http://www.w3.org/1999/xlink" width="200" height="200" viewBox="0 0 200 200">
  <defs>
    <clipPath id="clip-delete">
      <rect width="200" height="200"/>
    </clipPath>
  </defs>
  <g id="delete" clip-path="url(#clip-delete)">
    <rect width="200" height="200" fill="rgba(255,255,255,0)"/>
    <g id="グループ_132" data-name="グループ 132">
      <g id="グループ_42" data-name="グループ 42">
        <path id="パス_233" data-name="パス 233" d="M108,0" transform="translate(0.5 0.5)" fill="none" stroke="#9a855d" stroke-width="20"/>
      </g>
      <g id="グループ_89" data-name="グループ 89">
        <circle id="楕円形_69" data-name="楕円形 69" cx="100" cy="100" r="100" fill="#494331"/>
      </g>
      <path id="長方形_1206" data-name="長方形 1206" d="M0,0H80a0,0,0,0,1,0,0V85A10,10,0,0,1,70,95H10A10,10,0,0,1,0,85V0A0,0,0,0,1,0,0Z" transform="translate(60 69)" fill="#fff"/>
      <g id="グループ_131" data-name="グループ 131">
        <g id="グループ_129" data-name="グループ 129" transform="translate(7 -1)">
          <line id="線_38" data-name="線 38" x2="85" transform="translate(50.5 52.5)" fill="none" stroke="#fff" stroke-linecap="round" stroke-width="10"/>
          <g id="グループ_130" data-name="グループ 130" transform="translate(1)">
            <line id="線_37" data-name="線 37" y2="22" transform="translate(77 30.5)" fill="none" stroke="#fff" stroke-width="10"/>
            <line id="線_39" data-name="線 39" y2="22" transform="translate(107 30.5)" fill="none" stroke="#fff" stroke-width="10"/>
          </g>
        </g>
        <line id="線_40" data-name="線 40" x2="29" transform="translate(85.5 29.5)" fill="none" stroke="#fff" stroke-linecap="round" stroke-width="10"/>
      </g>
      <line id="線_41" data-name="線 41" y2="50" transform="translate(100.5 91.5)" fill="none" stroke="#494331" stroke-linecap="round" stroke-width="10"/>
      <line id="線_42" data-name="線 42" y2="50" transform="translate(123.5 91.5)" fill="none" stroke="#494331" stroke-linecap="round" stroke-width="10"/>
      <line id="線_43" data-name="線 43" y2="50" transform="translate(77.5 91.5)" fill="none" stroke="#494331" stroke-linecap="round" stroke-width="10"/>
    </g>
  </g>
</svg>
