<svg xmlns="http://www.w3.org/2000/svg" xmlns:xlink="http://www.w3.org/1999/xlink" width="200" height="200" viewBox="0 0 200 200">
  <defs>
    <clipPath id="clip-goods">
      <rect width="200" height="200"/>
    </clipPath>
  </defs>
  <g id="goods" clip-path="url(#clip-goods)">
    <rect width="200" height="200" fill="rgba(255,255,255,0)"/>
    <g id="グループ_83" data-name="グループ 83" transform="translate(10 11)">
      <g id="グループ_84" data-name="グループ 84" transform="translate(31 135)">
        <g id="パス_257" data-name="パス 257" fill="#fff">
          <path d="M 59 43 C 40.44760131835938 43 27.68592071533203 41.64913940429688 18.83819961547852 38.748779296875 C 14.09640026092529 37.19435882568359 10.54603958129883 35.18262100219727 8.285759925842285 32.76945877075195 C 7.196040153503418 31.60603904724121 6.402379989624023 30.3609790802002 5.859439849853516 28.96311950683594 C 5.289159774780273 27.49489974975586 5 25.82505989074707 5 24 C 5 22.17494010925293 5.289159774780273 20.50510025024414 5.859439849853516 19.03688049316406 C 6.402379989624023 17.6390209197998 7.196040153503418 16.39396095275879 8.285759925842285 15.23054027557373 C 10.54603958129883 12.81737995147705 14.09640026092529 10.80564022064209 18.83819961547852 9.251219749450684 C 27.68592071533203 6.350860118865967 40.44760131835938 5 59 5 C 73.23892211914063 5 83.14347839355469 5.596859931945801 91.11476135253906 6.935299873352051 C 95.68756103515625 7.703100204467773 99.58705902099609 8.735219955444336 102.7049407958984 10.00296020507813 C 105.7996215820313 11.2613000869751 108.2129592895508 12.78468036651611 109.8778991699219 14.53079986572266 C 110.9971237182617 15.70456027984619 111.7928009033203 16.97785949707031 112.3104629516602 18.42344093322754 C 112.8665008544922 19.97625923156738 113.1004028320313 21.7724609375 113.0056610107422 23.76218032836914 C 112.8210601806641 27.63887977600098 111.6069793701172 30.72257995605469 109.2940368652344 33.18954086303711 C 108.1604766845703 34.39860153198242 106.7195587158203 35.50453948974609 105.0113220214844 36.47663879394531 C 103.2644424438477 37.47071838378906 101.1817398071289 38.35762023925781 98.82108306884766 39.1126594543457 C 94.22689819335938 40.58209991455078 88.52516174316406 41.59920120239258 81.38999938964844 42.22206115722656 C 75.31027984619141 42.75279998779297 68.19570159912109 43 59 43 Z" stroke="none"/>
          <path d="M 59 10 C 26.02802276611328 10 10 14.57944869995117 10 24 C 10 33.42055130004883 26.02802276611328 38 59 38 C 99.10449981689453 38 107.5975723266602 32.21317291259766 108.0113220214844 23.52434921264648 C 108.159423828125 20.41427421569824 107.2087478637695 18.97699928283691 106.25927734375 17.98122406005859 C 98.64907836914063 10 69.84392547607422 10 59 10 M 59 0 C 91.58480072021484 0 119 3 118 24 C 117 45 91.58480072021484 48 59 48 C 26.41519927978516 48 0 44 0 24 C 0 4 26.41519927978516 0 59 0 Z" stroke="none" fill="#aaff7a"/>
        </g>
        <g id="楕円形_64" data-name="楕円形 64" fill="#fff" stroke="#aaff7a" stroke-width="10">
          <ellipse cx="59" cy="16" rx="59" ry="16" stroke="none"/>
          <ellipse cx="59" cy="16" rx="54" ry="11" fill="none"/>
        </g>
      </g>
      <g id="グループ_42" data-name="グループ 42" transform="translate(102.959 0.5)">
        <path id="パス_233" data-name="パス 233" d="M108,0" transform="translate(-108)" fill="none" stroke="#9a855d" stroke-width="20"/>
      </g>
      <g id="グループ_82" data-name="グループ 82" transform="translate(5.801 -5)">
        <path id="パス_254" data-name="パス 254" d="M64.655,0s41.4,37.852,56.1,61.825,2.715,34.068,2.715,34.068S109.526,90.14,78.7,92.417,3.984,114.2.155,105,64.655,0,64.655,0Z" transform="matrix(0.998, 0.07, -0.07, 0.998, 25.191, 23.804)" fill="#aaff7a"/>
        <g id="楕円形_60" data-name="楕円形 60" transform="translate(60.199 7)" fill="#fff" stroke="#aaff7a" stroke-width="10">
          <ellipse cx="21.5" cy="22.5" rx="21.5" ry="22.5" stroke="none"/>
          <ellipse cx="21.5" cy="22.5" rx="16.5" ry="17.5" fill="none"/>
        </g>
        <path id="パス_252" data-name="パス 252" d="M28-2s8.593,3.824,13,6c8.289,4.09,10,19,10,19s-6.14,8.021-10,9c-2.758.7-1.672-11.692-5-14-3.284-2.276-11.008,5.4-14.5,5-2.683-.31,2.719-5,0-5C9.626,18-1,32.971-1,28S28-2,28-2Z" transform="translate(59.751 2)" fill="#aaff7a"/>
        <g id="パス_253" data-name="パス 253" transform="matrix(0.875, -0.485, 0.485, 0.875, 0, 66.876)" fill="#fff" stroke-linejoin="round">
          <path d="M 56.22067260742188 118.7294311523438 C 56.20607757568359 118.7294311523438 56.19153213500977 118.729377746582 56.17697143554688 118.7292633056641 C 55.39128494262695 118.6380081176758 52.08203506469727 118.0107345581055 48.72231292724609 116.7515716552734 C 44.59741592407227 115.2056732177734 42.6136360168457 113.5558090209961 42.13253402709961 112.5272750854492 C 42.04071426391602 112.3309707641602 42.01639556884766 112.1820297241211 42.0428352355957 111.9777526855469 C 42.07585525512695 111.7225723266602 42.2230339050293 111.1608123779297 42.83775329589844 110.2654342651367 C 44.72673416137695 107.5141525268555 46.2231330871582 102.6261901855469 48.50821304321289 94.87885284423828 C 50.38135528564453 88.52811431884766 52.50443649291992 81.33000946044922 54.69661331176758 77.31767272949219 L 61.1641731262207 65.48013305664063 L 48.54363632202148 70.2423095703125 C 45.9413948059082 71.22421264648438 43.24645614624023 73.56715393066406 38.70717620849609 77.62371063232422 C 37.21145629882813 78.96037292480469 35.66481399536133 80.342529296875 34.08899307250977 81.67375183105469 C 28.81449508666992 86.12923431396484 24.89931488037109 90.56404876708984 21.44501495361328 94.47681427001953 C 18.26151466369629 98.08284759521484 15.5121545791626 101.1971130371094 13.0325345993042 102.6518096923828 C 9.706589698791504 104.6029815673828 7.937512874603271 105.0756530761719 7.169524192810059 105.1822128295898 C 7.118050575256348 105.018440246582 7.059630393981934 104.8001022338867 7.000574588775635 104.5141143798828 C 6.837934970855713 103.7265090942383 6.742494583129883 102.7828140258789 6.650194644927979 101.8701934814453 C 6.55168342590332 100.8960876464844 6.457916736602783 99.96894073486328 6.278698921203613 99.07112884521484 C 6.362689971923828 98.18065643310547 7.040655612945557 94.83919525146484 9.489554405212402 89.93755340576172 C 11.53405475616455 85.84535217285156 15.30915451049805 79.72200775146484 21.68333435058594 73.78958892822266 C 24.94307518005371 70.75575256347656 28.91885566711426 63.89391326904297 31.68013381958008 58.67177200317383 C 33.170654296875 55.85287094116211 34.56345367431641 53.00889205932617 35.60195541381836 50.66377258300781 C 35.88663482666016 50.02091217041016 36.13185882568359 49.44685363769531 36.34249496459961 48.93118667602539 C 36.38617324829102 48.93585586547852 36.43052673339844 48.940673828125 36.47573471069336 48.94567108154297 L 36.55517578125 48.40052032470703 C 37.40340423583984 46.23939895629883 37.57710647583008 45.19769287109375 37.55363464355469 44.24735260009766 C 37.58064651489258 45.34079360961914 37.25051498413086 46.25859069824219 36.76240539550781 46.97839736938477 L 37.91683578491211 39.05611038208008 C 34.86305618286133 38.50257110595703 30.36369514465332 37.42179107666016 26.27079391479492 35.41657257080078 C 21.93479537963867 33.29223251342773 19.18449401855469 30.69039154052734 18.09635543823242 27.68335151672363 C 16.24005508422852 22.55365180969238 17.53077507019043 15.83005142211914 18.47323417663574 10.9206714630127 C 18.86177444458008 8.896631240844727 19.19735527038574 7.148611545562744 19.29717445373535 5.651371479034424 C 19.30195617675781 5.579658031463623 19.30611419677734 5.508282661437988 19.30963134765625 5.437923908233643 C 20.5117015838623 5.357667922973633 21.95424270629883 5.303991317749023 23.62959480285645 5.303991317749023 C 29.87807464599609 5.303991317749023 35.86667633056641 6.06101131439209 38.53143310546875 7.187731266021729 C 39.61459350585938 7.645871162414551 39.77693557739258 8.130791664123535 39.84623336791992 8.337851524353027 C 39.96991348266602 8.707298278808594 39.95663452148438 9.110138893127441 39.93710327148438 9.27446174621582 L 37.58319473266602 19.53821182250977 L 47.08627319335938 14.74783134460449 C 47.14263534545898 14.71941089630127 52.76907348632813 11.88705158233643 55.62729644775391 10.74251174926758 C 56.46245574951172 10.40813159942627 57.45393371582031 10.24553108215332 58.65811538696289 10.24553108215332 C 61.09771347045898 10.24553108215332 63.82617568969727 10.91025161743164 66.46481323242188 11.55307102203369 C 68.854736328125 12.13531112670898 71.11211395263672 12.68527126312256 73.20065307617188 12.73533153533936 C 77.89447784423828 12.84783172607422 82.06181335449219 14.10507106781006 85.25213623046875 16.37113189697266 C 86.75105285644531 17.435791015625 88.03709411621094 18.72137069702148 89.07457733154297 20.19215202331543 C 90.12561798095703 21.68219184875488 90.92591094970703 23.36851119995117 91.45325469970703 25.20429229736328 C 91.79481506347656 26.39265060424805 92.85609436035156 28.47811126708984 96.12863159179688 29.10163116455078 C 96.80569458007813 29.23063087463379 97.57925415039063 29.31239128112793 98.47495269775391 29.40705108642578 C 100.6937942504883 29.64157104492188 104.0469131469727 29.9959716796875 107.0745544433594 31.29387092590332 C 108.5849761962891 31.94135093688965 109.884033203125 32.77065277099609 110.9356536865234 33.75873184204102 C 112.1629180908203 34.91183090209961 113.0918121337891 36.29251098632813 113.7754364013672 37.97970962524414 C 117.6463165283203 47.53310775756836 117.5413208007813 51.44208526611328 117.4965362548828 52.02721405029297 C 117.0980453491211 53.36977005004883 114.5185165405273 61.95866775512695 111.1336517333984 70.90121459960938 C 106.3139953613281 83.63439178466797 103.1410293579102 88.46410369873047 101.641227722168 90.23246002197266 C 101.3013229370117 89.95663452148438 100.9070205688477 89.64752960205078 100.4402923583984 89.28165435791016 C 98.33539581298828 87.631591796875 95.15443420410156 85.13799285888672 92.56859588623047 82.19997406005859 C 90.02389526367188 79.30870819091797 88.74177551269531 76.7508544921875 88.86085510253906 74.80293273925781 L 79.33469390869141 72.39321136474609 C 77.64425659179688 76.03609466552734 74.89765167236328 81.29656982421875 71.41269683837891 85.67007446289063 C 65.74383544921875 92.78513336181641 63.63113403320313 101.146614074707 61.93355560302734 107.8651885986328 C 61.0144157409668 111.5028686523438 60.14625549316406 114.9388122558594 58.97033309936523 116.9743499755859 C 58.10295486450195 118.4757919311523 57.42177581787109 118.7292327880859 56.22297286987305 118.7294311523438 C 56.22220611572266 118.7294311523438 56.22143936157227 118.7294311523438 56.22067260742188 118.7294311523438 Z" stroke="none"/>
          <path d="M 23.67469787597656 10.30400848388672 C 23.57659912109375 10.85776519775391 23.47629547119141 11.38021850585938 23.38355255126953 11.86331176757813 C 22.55055236816406 16.20265197753906 21.40968322753906 22.14556884765625 22.79795074462891 25.98196411132813 C 24.0145263671875 29.34394073486328 30.44873809814453 32.62091827392578 38.12352752685547 34.03646850585938 C 40.3685302734375 34.28456878662109 42.47116088867188 34.66912841796875 42.47116088867188 34.66912841796875 C 47.71968841552734 35.62907409667969 51.26686859130859 40.53859710693359 50.56086730957031 45.82728576660156 C 49.89292144775391 50.83094024658203 45.59925842285156 54.50273132324219 40.63589477539063 54.50273132324219 C 40.35315704345703 54.50273132324219 40.06787109375 54.49079132080078 39.78134155273438 54.46652221679688 C 39.78134155273438 54.46652221679688 39.62394714355469 54.45318603515625 39.34815216064453 54.42391967773438 C 35.33732604980469 63.26476287841797 28.57353210449219 74.20731353759766 25.08976745605469 77.44964599609375 C 16.80490112304688 85.16034698486328 13.09828186035156 93.40495300292969 11.81143188476563 97.37390899658203 C 13.46638488769531 95.95948791503906 15.53495025634766 93.61637878417969 17.69673919677734 91.16764831542969 C 21.08795166015625 87.32636260986328 25.30839538574219 82.54576110839844 30.86236572265625 77.85417938232422 C 32.41918182373047 76.53904724121094 33.93994903564453 75.17833709716797 35.37550354003906 73.89543914794922 C 38.33030700683594 71.25485229492188 40.75033569335938 69.09219360351563 43.07540130615234 67.53047180175781 C 44.74320220947266 65.08437347412109 47.32306671142578 62.58635330200195 51.78342437744141 62.57846832275391 C 51.78932189941406 62.57845687866211 51.79515075683594 62.57845306396484 51.80105590820313 62.57845306396484 C 56.6275634765625 62.57845306396484 60.79077529907227 66.05308532714844 61.66128921508789 70.8021240234375 C 62.27457046508789 74.14779663085938 60.91667175292969 78.02977752685547 58.50891876220703 80.86087036132813 C 56.73397064208984 84.66403198242188 54.84874725341797 91.05594635009766 53.30397796630859 96.29328155517578 C 51.28533172607422 103.1373443603516 49.90139007568359 107.6866302490234 48.14821624755859 111.0786666870117 C 50.13519287109375 112.0740661621094 53.11402130126953 113.0552597045898 55.10387420654297 113.511116027832 C 55.78589630126953 111.7862243652344 56.54350280761719 108.7876892089844 57.08589935302734 106.6409683227539 C 58.90129089355469 99.45583343505859 61.1606330871582 90.51367950439453 67.50234222412109 82.55415344238281 C 70.28265380859375 79.06494140625 72.57883453369141 74.88861083984375 74.16482543945313 71.62443542480469 C 74.22874450683594 71.27706146240234 74.30283355712891 70.92922210693359 74.38742065429688 70.58078002929688 C 75.41276550292969 66.36643981933594 77.99884033203125 63.4475212097168 78.76702880859375 62.6533088684082 C 80.70388031005859 60.65078735351563 83.30894470214844 59.61331939697266 85.94195556640625 59.61331939697266 C 87.77516174316406 59.61331939697266 89.62228393554688 60.11667633056641 91.26531982421875 61.14762496948242 C 95.2681884765625 63.65930938720703 96.96176147460938 68.64291381835938 95.33242034912109 73.07875823974609 C 95.33242034912109 73.07875823974609 94.92915344238281 74.17665863037109 94.1629638671875 75.96781921386719 C 94.74095153808594 77.16390991210938 96.31705474853516 79.302734375 100.4832458496094 82.86376953125 C 103.9500045776367 76.28329467773438 108.740104675293 63.87872314453125 112.4970016479492 51.33283233642578 C 112.4244079589844 50.29781341552734 111.9670104980469 46.83104705810547 109.1413421630859 39.85730743408203 C 107.6129760742188 36.08517456054688 104.0287933349609 35.02188873291016 97.94942474365234 34.37936401367188 C 95.15292358398438 34.08380889892578 88.60404968261719 33.39165496826172 86.64760589599609 26.58475494384766 C 85.08039855957031 21.12899017333984 80.135498046875 17.90296936035156 73.08081817626953 17.73388671875 C 70.45286560058594 17.67089080810547 67.82382202148438 17.03038787841797 65.28134155273438 16.41096496582031 C 62.92942047119141 15.83798980712891 60.49747467041016 15.24552154541016 58.65813446044922 15.24552154541016 C 57.87216186523438 15.24552154541016 57.54334259033203 15.36122894287109 57.48600006103516 15.38417816162109 C 54.67618560791016 16.50936126708984 49.39605712890625 19.18280792236328 49.33634185791016 19.21291351318359 C 47.91255950927734 19.93039703369141 46.37126159667969 20.2828369140625 44.83731842041016 20.2828369140625 C 42.6424560546875 20.2828369140625 40.46299743652344 19.56089782714844 38.66741943359375 18.15370178222656 C 36.49148559570313 16.44838714599609 35.15806579589844 13.95610809326172 34.88679504394531 11.29603576660156 C 32.46805572509766 10.75959777832031 28.36918640136719 10.30681610107422 23.67469787597656 10.30400848388672 M 23.62954711914063 0.303985595703125 C 29.69204711914063 0.3039169311523438 36.68398284912109 0.9780120849609375 40.47863006591797 2.582466125488281 C 46.06024169921875 4.943305969238281 44.83560943603516 10.28299713134766 44.83560943603516 10.28299713134766 C 44.83560943603516 10.28299713134766 50.67329406738281 7.340309143066406 53.7685546875 6.100837707519531 C 55.31370544433594 5.482208251953125 56.97000885009766 5.245529174804688 58.65812683105469 5.245529174804688 C 64.04370880126953 5.245529174804688 69.76381683349609 7.651504516601563 73.32048034667969 7.73675537109375 C 85.02529144287109 8.017311096191406 93.50834655761719 14.24854278564453 96.25892639160156 23.82383728027344 C 96.64973449707031 25.18357086181641 113.0281600952148 22.82062530517578 118.4094772338867 36.10209655761719 C 123.7311325073242 49.23596954345703 122.3490524291992 53.24941253662109 122.3490524291992 53.24941253662109 C 122.3490524291992 53.24941253662109 109.8469924926758 96.02279663085938 101.5091323852539 96.02279663085938 C 100.730712890625 96.02279663085938 99.98957824707031 95.65068054199219 99.29728698730469 94.83589172363281 C 97.96943664550781 93.27290344238281 83.286376953125 84.04844665527344 83.87017059326172 74.49786376953125 C 85.22160339355469 71.58555603027344 85.95497131347656 69.60551452636719 85.95497131347656 69.60551452636719 C 85.95497131347656 69.60551452636719 84.56736755371094 71.04017639160156 84.10397338867188 72.94480895996094 C 83.97817993164063 73.46297454833984 83.90179443359375 73.98045349121094 83.87017059326172 74.49786376953125 C 82.04942321777344 78.42155456542969 79.106689453125 84.03771209716797 75.32307434082031 88.78599548339844 C 64.02164459228516 102.9705429077148 68.51702880859375 123.7294235229492 56.22379302978516 123.7294235229492 C 56.13461303710938 123.7294235229492 56.04635620117188 123.7283554077148 55.95539855957031 123.7261810302734 C 54.10713195800781 123.6818618774414 30.64797210693359 119.1865234375 38.71573638916016 107.435417175293 C 41.92155456542969 102.7661743164063 45.60849761962891 83.52333068847656 50.30881500244141 74.92033386230469 C 51.04692840576172 74.64181518554688 51.99609375 72.57808685302734 51.80095672607422 72.57843017578125 C 51.69696044921875 72.57861328125 51.26792907714844 73.1650390625 50.30881500244141 74.92033386230469 C 47.64131927490234 75.92688751220703 42.67826080322266 80.96310424804688 37.31560516357422 85.4932861328125 C 27.00831604003906 94.20009613037109 21.71123504638672 103.3572845458984 15.56255340576172 106.9644393920898 C 11.58631134033203 109.2971115112305 8.788406372070313 110.2112274169922 6.805084228515625 110.2112274169922 C 1.261245727539063 110.2112274169922 2.081893920898438 103.0690612792969 1.322029113769531 99.80194091796875 C 0.754608154296875 97.36496734619141 4.667160034179688 82.79605102539063 18.27689361572266 70.12949371337891 C 23.142578125 65.60102081298828 32.60671234130859 46.45770263671875 32.55516052246094 44.37083435058594 C 32.54471588134766 43.94831085205078 33.33375549316406 43.80300140380859 34.42298126220703 43.80294799804688 C 35.1978759765625 43.80290985107422 36.12498474121094 43.87645721435547 37.02500915527344 43.97593688964844 C 39.24339294433594 44.37805938720703 40.67520904541016 44.50654602050781 40.67520904541016 44.50654602050781 C 40.67520904541016 44.50654602050781 38.90983581542969 44.18425750732422 37.02500915527344 43.97593688964844 C 30.44290161132813 42.78280639648438 16.93978881835938 39.18135833740234 13.39468383789063 29.38470458984375 C 9.455734252929688 18.49970245361328 16.38413238525391 4.224624633789063 13.68592071533203 3.124496459960938 C 9.524467468261719 1.428070068359375 15.80195617675781 0.3040847778320313 23.62954711914063 0.303985595703125 Z" stroke="none" fill="#aaff7a"/>
        </g>
        <ellipse id="楕円形_61" data-name="楕円形 61" cx="25.5" cy="9" rx="25.5" ry="9" transform="translate(59.199 35)" fill="#aaff7a"/>
        <g id="楕円形_62" data-name="楕円形 62" transform="translate(12.199 37)" fill="#fff" stroke="#aaff7a" stroke-width="10">
          <ellipse cx="18" cy="16" rx="18" ry="16" stroke="none"/>
          <ellipse cx="18" cy="16" rx="13" ry="11" fill="none"/>
        </g>
        <path id="多角形_10" data-name="多角形 10" d="M30.075.769a3,3,0,0,1,2.85,0L52.549,11.36A3,3,0,0,1,51.124,17H11.876a3,3,0,0,1-1.425-5.64Z" transform="translate(114.714 106.196) rotate(-178)" fill="#aaff7a"/>
        <path id="多角形_11" data-name="多角形 11" d="M15.476,1.851a3,3,0,0,1,4.049,0L29.3,10.786A3,3,0,0,1,27.273,16H7.727A3,3,0,0,1,5.7,10.786Z" transform="translate(101.199 70) rotate(180)" fill="#aaff7a"/>
        <g id="楕円形_63" data-name="楕円形 63" transform="translate(104.199 80)" fill="#fff" stroke="#aaff7a" stroke-width="10">
          <ellipse cx="18" cy="16" rx="18" ry="16" stroke="none"/>
          <ellipse cx="18" cy="16" rx="13" ry="11" fill="none"/>
        </g>
        <g id="長方形_1169" data-name="長方形 1169" transform="matrix(0.995, -0.105, 0.105, 0.995, 82.707, 116.441)" fill="#fff" stroke="#aaff7a" stroke-width="10">
          <rect width="30" height="49" rx="10" stroke="none"/>
          <rect x="5" y="5" width="20" height="39" rx="5" fill="none"/>
        </g>
        <g id="長方形_1170" data-name="長方形 1170" transform="translate(45.778 112.698) rotate(8)" fill="#fff" stroke="#aaff7a" stroke-width="10">
          <rect width="29" height="49" rx="10" stroke="none"/>
          <rect x="5" y="5" width="19" height="39" rx="5" fill="none"/>
        </g>
      </g>
    </g>
  </g>
</svg>
