<svg xmlns="http://www.w3.org/2000/svg" xmlns:xlink="http://www.w3.org/1999/xlink" width="200" height="200" viewBox="0 0 200 200">
  <defs>
    <clipPath id="clip-path">
      <path id="交差_6" data-name="交差 6" d="M-17985,306.077V164a30,30,0,0,1,30-30h169.859c-4.445,96.293-83.967,173-181.414,173A183.949,183.949,0,0,1-17985,306.077Z" transform="translate(17985 -134)" fill="#cfb172"/>
    </clipPath>
    <clipPath id="clip-Web_1280_1">
      <rect width="200" height="200"/>
    </clipPath>
  </defs>
  <g id="Web_1280_1" data-name="Web 1280 – 1" clip-path="url(#clip-Web_1280_1)">
    <rect width="200" height="200" fill="rgba(255,255,255,0)"/>
    <g id="グループ_42" data-name="グループ 42">
      <rect id="長方形_1136" data-name="長方形 1136" width="200" height="200" rx="30" fill="#d9bf8a"/>
      <g id="マスクグループ_3" data-name="マスクグループ 3" transform="translate(0.002)" clip-path="url(#clip-path)">
        <rect id="長方形_1143" data-name="長方形 1143" width="200" height="200" rx="30" fill="#cfb172"/>
      </g>
      <path id="交差_4" data-name="交差 4" d="M-17985,275.239V164a30,30,0,0,1,30-30h133.863a148.939,148.939,0,0,1-148.742,142A150.492,150.492,0,0,1-17985,275.239Z" transform="translate(17985 -134)" fill="#bfa36c"/>
      <path id="パス_233" data-name="パス 233" d="M108,0" transform="translate(0.5 0.5)" fill="none" stroke="#9a855d" stroke-width="20"/>
      <path id="交差_1" data-name="交差 1" d="M-17985,255.35V164a30,30,0,0,1,30-30h110.863A128.005,128.005,0,0,1-17972,256,129.537,129.537,0,0,1-17985,255.35Z" transform="translate(17985 -134)" fill="#af986a"/>
      <path id="交差_5" data-name="交差 5" d="M-17985,237.442V164a30,30,0,0,1,30-30h90.861c-2.687,57.887-50.773,104-109.705,104Q-17979.492,238-17985,237.442Z" transform="translate(17985 -134)" fill="#987d48"/>
      <path id="交差_2" data-name="交差 2" d="M-17985,220.536V164a30,30,0,0,1,30-30h69.863c-2.223,48.428-41.957,87-90.648,87A91.266,91.266,0,0,1-17985,220.536Z" transform="translate(17985 -134)" fill="#a58d5b"/>
      <path id="交差_3" data-name="交差 3" d="M-17985,194.674V164a30,30,0,0,1,30-30h40.859a64.22,64.22,0,0,1-64.32,61A65.5,65.5,0,0,1-17985,194.674Z" transform="translate(17985 -134)" fill="#b99f6a"/>
      <g id="グループ_41" data-name="グループ 41" transform="translate(-1 -6)">
        <g id="グループ_40" data-name="グループ 40">
          <g id="グループ_38" data-name="グループ 38" transform="translate(2.502 3)">
            <rect id="長方形_1144" data-name="長方形 1144" width="38" height="95" rx="9" transform="translate(79.498 92)" fill="#fff"/>
            <path id="合体_10" data-name="合体 10" d="M33.376,39.938v-19a5.566,5.566,0,0,1-7.493,5.218V32.73a6.769,6.769,0,1,1-13.539,0V27.293A8.092,8.092,0,0,1,0,20.409V10.59A8.072,8.072,0,0,1,.511,7.753,8,8,0,0,1,8.508,0H35.995a8,8,0,0,1,7.168,4.444A5.54,5.54,0,0,1,44.5,8.062V39.938a5.562,5.562,0,0,1-11.125,0Z" transform="translate(75.498 91)" fill="#d9d9d9"/>
          </g>
          <g id="グループ_39" data-name="グループ 39" transform="translate(0 4.5)">
            <path id="合体_8" data-name="合体 8" d="M20,0c5.87,0,20,30.4,20,42S31.045,63,20,63,0,53.6,0,42C0,33.728,14.13,0,20,0Z" transform="translate(80 21.5)" fill="red"/>
            <path id="パス_238" data-name="パス 238" d="M8,0c4.418,0,8.75,10.742,8.75,18.75S12.418,29,8,29s-9-2.242-9-10.25S3.582,0,8,0Z" transform="translate(93 50.5)" fill="#ff9100"/>
            <path id="パス_237" data-name="パス 237" d="M0,0,2.1,14.642" transform="translate(100.233 75.191)" fill="none" stroke="#707070" stroke-linecap="round" stroke-width="3"/>
          </g>
        </g>
        <circle id="楕円形_39" data-name="楕円形 39" cx="6" cy="6" r="6" transform="translate(113 146)" fill="#d9d9d9"/>
      </g>
    </g>
  </g>
</svg>
