<svg xmlns="http://www.w3.org/2000/svg" xmlns:xlink="http://www.w3.org/1999/xlink" width="200" height="200" viewBox="0 0 200 200">
  <defs>
    <clipPath id="clip-life">
      <rect width="200" height="200"/>
    </clipPath>
  </defs>
  <g id="life" clip-path="url(#clip-life)">
    <rect width="200" height="200" fill="rgba(255,255,255,0)"/>
    <g id="グループ_42" data-name="グループ 42">
      <path id="パス_233" data-name="パス 233" d="M108,0" transform="translate(0.5 0.5)" fill="none" stroke="#9a855d" stroke-width="20"/>
    </g>
    <g id="グループ_45" data-name="グループ 45" transform="translate(-1 -18)">
      <g id="グループ_44" data-name="グループ 44" transform="translate(46.819 57.961)">
        <g id="合体_12" data-name="合体 12" transform="translate(0 0)" fill="#fff" stroke-linecap="round" stroke-linejoin="round">
          <path d="M 98.756103515625 116.4640121459961 L 81.04769897460938 116.4640121459961 C 78.29074096679688 116.4640121459961 76.04779815673828 114.2210693359375 76.04779815673828 111.464111328125 L 76.04779815673828 75.00871276855469 C 76.04779815673828 74.93939208984375 76.04924011230469 74.86878967285156 76.05207824707031 74.79885101318359 L 76.26376342773438 69.59561157226563 L 71.05622100830078 69.59561157226563 L 37.92837905883789 69.59561157226563 L 32.72084045410156 69.59561157226563 L 32.93252182006836 74.79885101318359 C 32.93535995483398 74.86878967285156 32.93680191040039 74.93939208984375 32.93680191040039 75.00871276855469 L 32.93680191040039 111.464111328125 C 32.93680191040039 114.2210693359375 30.69386100769043 116.4640121459961 27.9369010925293 116.4640121459961 L 10.22850036621094 116.4640121459961 C 7.471539974212646 116.4640121459961 5.228600025177002 114.2210693359375 5.228600025177002 111.464111328125 L 5.228600025177002 70.0113525390625 L 5.228600025177002 68.55013275146484 L 4.441740036010742 67.31887054443359 C 3.877100229263306 66.43534851074219 3.585920095443726 65.38916778564453 3.621840238571167 64.37306976318359 C 3.660080194473267 63.29069137573242 4.052840232849121 62.29169082641602 4.789180278778076 61.40383148193359 L 50.64413833618164 6.113271236419678 C 51.9487190246582 4.540310859680176 53.61537933349609 4.305430889129639 54.49275970458984 4.305430889129639 C 55.37012100219727 4.305430889129639 57.03678131103516 4.540310859680176 58.3414192199707 6.113350868225098 L 104.1963577270508 61.40386962890625 C 104.9328994750977 62.29196929931641 105.3257217407227 63.2912712097168 105.3638763427734 64.37395477294922 C 105.3996963500977 65.39032745361328 105.1083374023438 66.43665313720703 104.5434188842773 67.32021331787109 L 103.7559967041016 68.55178833007813 L 103.7559967041016 70.01357269287109 L 103.7559967041016 111.464111328125 C 103.7559967041016 114.2210693359375 101.5130615234375 116.4640121459961 98.756103515625 116.4640121459961 Z" stroke="none"/>
          <path d="M 27.93680572509766 111.4641036987305 L 27.93663024902344 75.00167846679688 C 27.82608032226563 72.28130340576172 28.8294792175293 69.63347625732422 30.71517944335938 67.66960144042969 C 32.60085678100586 65.70570373535156 35.20575332641602 64.59560394287109 37.92837905883789 64.59560394287109 L 71.05622863769531 64.59560394287109 C 76.57907867431641 64.59560394287109 81.04780578613281 69.48584747314453 81.04780578613281 75.00869750976563 L 81.04770660400391 111.4640045166016 L 98.75600433349609 111.4641036987305 L 98.75600433349609 70.01357269287109 C 98.75600433349609 68.10449981689453 99.31935882568359 66.20414733886719 100.3477020263672 64.595703125 L 54.49280548095703 9.30510139465332 L 8.654880523681641 64.62637329101563 C 9.682530403137207 66.23442840576172 10.22860527038574 68.10297393798828 10.22860527038574 70.0113525390625 L 10.22850513458252 111.4640045166016 L 27.93680572509766 111.4641036987305 M 98.756103515625 121.4640045166016 L 81.04770660400391 121.4640045166016 C 75.52440643310547 121.4640045166016 71.04780578613281 116.9874038696289 71.04780578613281 111.4641036987305 L 71.04780578613281 75.00869750976563 C 71.04780578613281 74.87017822265625 71.05065155029297 74.73277282714844 71.05622863769531 74.59560394287109 L 37.92837905883789 74.59560394287109 C 37.93395614624023 74.73277282714844 37.93680572509766 74.87017822265625 37.93680572509766 75.00869750976563 L 37.93680572509766 111.4641036987305 C 37.93680572509766 116.9874038696289 33.460205078125 121.4640045166016 27.93690490722656 121.4640045166016 L 10.22850513458252 121.4640045166016 C 4.705204963684082 121.4640045166016 0.2286051362752914 116.9874038696289 0.2286051362752914 111.4641036987305 L 0.2286051362752914 70.0113525390625 C -1.964044809341431 66.58035278320313 -2.092444896697998 61.86912536621094 0.9405051469802856 58.21200180053711 L 46.79550552368164 2.921401023864746 C 48.79485702514648 0.5107510685920715 51.64380645751953 -0.6945739388465881 54.49275588989258 -0.6945739388465881 C 57.34170532226563 -0.6945739388465881 60.19065475463867 0.5107510685920715 62.19000625610352 2.921401023864746 L 108.0450057983398 58.21200180053711 C 111.0786056518555 61.86989974975586 110.9497833251953 66.58237457275391 108.7560043334961 70.01357269287109 L 108.7560043334961 111.4641036987305 C 108.7560043334961 116.9874038696289 104.2794036865234 121.4640045166016 98.756103515625 121.4640045166016 Z" stroke="none" fill="#7a9dff"/>
        </g>
      </g>
      <g id="グループ_78" data-name="グループ 78" transform="translate(27.498 56.5)">
        <path id="合体_19" data-name="合体 19" d="M73.252,0,146.5,80.827Zm0,0L0,80.827Z" fill="none" stroke="#7a9dff" stroke-linecap="round" stroke-linejoin="round" stroke-width="10"/>
      </g>
    </g>
  </g>
</svg>
