<svg xmlns="http://www.w3.org/2000/svg" xmlns:xlink="http://www.w3.org/1999/xlink" width="400" height="200" viewBox="0 0 400 200">
  <defs>
    <clipPath id="clip-logo">
      <rect width="400" height="200"/>
    </clipPath>
  </defs>
  <g id="logo" clip-path="url(#clip-logo)">
    <rect width="400" height="200" fill="rgba(255,255,255,0)"/>
    <g id="グループ_42" data-name="グループ 42">
      <path id="パス_233" data-name="パス 233" d="M108,0" transform="translate(0.5 0.5)" fill="none" stroke="#9a855d" stroke-width="20"/>
    </g>
    <path id="パス_260" data-name="パス 260" d="M96.6-38H41L25.6,0H6.4L69.6-150.6h1.2L134,0H111.6ZM90-54.8,69.4-107.6,48-54.8ZM269-12.4q-6.6,5.2-20.7,9.6a88.053,88.053,0,0,1-26.1,4.4q-22.6,0-39.8-9.3a66.012,66.012,0,0,1-26.5-25.5,71.788,71.788,0,0,1-9.3-36.4q0-23.6,10-40.9a68.311,68.311,0,0,1,27-26.5,76.9,76.9,0,0,1,37.2-9.2,88.372,88.372,0,0,1,23,2.9,84.743,84.743,0,0,1,19.4,7.7l-6.4,17.8a73.032,73.032,0,0,0-16.1-6.3,65.931,65.931,0,0,0-17.5-2.7q-16.8,0-29.7,6.8a47.722,47.722,0,0,0-19.9,19.4q-7,12.6-7,29.4a54.851,54.851,0,0,0,7,27.8,47.922,47.922,0,0,0,19.8,18.9q12.8,6.7,29.2,6.7a72.377,72.377,0,0,0,14.8-1.5,40.008,40.008,0,0,0,12-4.3V-52.2H220.6V-70.8H269ZM400-144.6V-126H325.4v44H392v18.6H325.4v44.6h77.4V0H306V-144.6Z" transform="translate(-6 175)" fill="#fff"/>
  </g>
</svg>
