<svg xmlns="http://www.w3.org/2000/svg" xmlns:xlink="http://www.w3.org/1999/xlink" width="400" height="200" viewBox="0 0 400 200">
  <defs>
    <clipPath id="clip-logo-brown">
      <rect width="400" height="200"/>
    </clipPath>
  </defs>
  <g id="logo-brown" clip-path="url(#clip-logo-brown)">
    <rect width="400" height="200" fill="rgba(255,255,255,0)"/>
    <g id="グループ_42" data-name="グループ 42">
      <path id="パス_233" data-name="パス 233" d="M108,0" transform="translate(0.5 0.5)" fill="none" stroke="#9a855d" stroke-width="20"/>
    </g>
    <g id="グループ_134" data-name="グループ 134">
      <path id="パス_261" data-name="パス 261" d="M96.6,112H41L25.6,150H6.4L69.6-.6h1.2L134,150H111.6ZM90,95.2,69.4,42.4,48,95.2Z" transform="translate(7 25.6)" fill="#494331"/>
      <path id="パス_262" data-name="パス 262" d="M114.8,5.4V24H40.2V68h66.6V86.6H40.2v44.6h77.4V150H20.8V5.4Z" transform="translate(269 22.6)" fill="#494331"/>
      <g id="グループ_133" data-name="グループ 133" transform="translate(3 1.2)">
        <path id="パス_263" data-name="パス 263" d="M134.2,137.6q-6.6,5.2-20.7,9.6a88.053,88.053,0,0,1-26.1,4.4q-22.6,0-39.8-9.3a66.012,66.012,0,0,1-26.5-25.5,71.788,71.788,0,0,1-9.3-36.4q0-23.6,10-40.9A68.311,68.311,0,0,1,48.8,13,76.9,76.9,0,0,1,86,3.8a88.372,88.372,0,0,1,23,2.9,84.743,84.743,0,0,1,19.4,7.7L122,32.2a73.033,73.033,0,0,0-16.1-6.3,65.931,65.931,0,0,0-17.5-2.7q-16.8,0-29.7,6.8A47.722,47.722,0,0,0,38.8,49.4q-7,12.6-7,29.4a54.851,54.851,0,0,0,7,27.8,47.922,47.922,0,0,0,19.8,18.9q12.8,6.7,29.2,6.7a72.377,72.377,0,0,0,14.8-1.5,40.008,40.008,0,0,0,12-4.3V97.8H85.8V79.2h48.4Z" transform="translate(126 22)" fill="none" stroke="#494331" stroke-width="6"/>
        <path id="パス_264" data-name="パス 264" d="M122.666-18.447a69.665,69.665,0,0,1-18.393,6.854A90.4,90.4,0,0,1,83.39-9Q63.081-9,47.466-17.8a62.14,62.14,0,0,1-24.141-23.9A66.808,66.808,0,0,1,14.8-75.13a63.481,63.481,0,0,1,9.292-33.62,68.644,68.644,0,0,1,25-24.266A67.893,67.893,0,0,1,83.39-142a70.084,70.084,0,0,1,35.444,9.447l-1.916,3.149a67.027,67.027,0,0,0-15.9-6.669,64.526,64.526,0,0,0-17.435-2.408,64.63,64.63,0,0,0-32.571,8.521A64.133,64.133,0,0,0,27.349-106.9,60.651,60.651,0,0,0,18.632-75.13a63.339,63.339,0,0,0,8.047,31.675,58.987,58.987,0,0,0,22.7,22.6Q64.039-12.52,83.007-12.52a86.675,86.675,0,0,0,19.063-2.223,61.709,61.709,0,0,0,16.764-6.113V-63.274H86.264v-3.519h36.4Z" transform="translate(130 175)" fill="#494331" stroke="#494331" stroke-width="2"/>
      </g>
    </g>
  </g>
</svg>
