<svg xmlns="http://www.w3.org/2000/svg" xmlns:xlink="http://www.w3.org/1999/xlink" width="200" height="200" viewBox="0 0 200 200">
  <defs>
    <clipPath id="clip-phone">
      <rect width="200" height="200"/>
    </clipPath>
  </defs>
  <g id="phone" clip-path="url(#clip-phone)">
    <rect width="200" height="200" fill="rgba(255,255,255,0)"/>
    <g id="グループ_42" data-name="グループ 42">
      <path id="パス_233" data-name="パス 233" d="M108,0" transform="translate(0.5 0.5)" fill="none" stroke="#9a855d" stroke-width="20"/>
    </g>
    <g id="合体_13" data-name="合体 13" transform="translate(13574.662 -13498.994) rotate(-45)" fill="#fff" stroke-linejoin="round">
      <path d="M -19128.958984375 166.2346496582031 L -19128.958984375 166.2346496582031 C -19129.771484375 166.2346801757813 -19130.58984375 166.1333923339844 -19131.390625 165.9336547851563 L -19144.009765625 162.7896575927734 C -19145.9609375 162.3024749755859 -19147.697265625 161.2567291259766 -19149.03125 159.7662353515625 L -19149.46484375 159.281005859375 L -19150.009765625 158.9231262207031 C -19150.892578125 158.3418121337891 -19151.775390625 157.6767578125 -19152.6328125 156.9464263916016 C -19156.822265625 153.3788604736328 -19160.630859375 148.1785736083984 -19163.951171875 141.4899444580078 C -19167.392578125 134.569580078125 -19170.1015625 126.4719161987305 -19172.00390625 117.4188385009766 C -19173.9921875 107.9655532836914 -19175 97.90000152587891 -19175 87.50063323974609 C -19175 77.10126495361328 -19173.9921875 67.03570556640625 -19172.00390625 57.58357620239258 C -19170.103515625 48.53494644165039 -19167.39453125 40.43547058105469 -19163.951171875 33.50841903686523 C -19160.630859375 26.82060432434082 -19156.822265625 21.62155151367188 -19152.6328125 18.0549201965332 C -19150.720703125 16.42683982849121 -19148.755859375 15.17510318756104 -19146.796875 14.33568286895752 L -19146.583984375 14.24399852752686 L -19146.37890625 14.13284015655518 C -19145.63671875 13.72915649414063 -19144.83984375 13.41957759857178 -19144.009765625 13.21270847320557 L -19131.390625 10.06436634063721 C -19130.59375 9.865603446960449 -19129.775390625 9.76457691192627 -19128.962890625 9.76457691192627 C -19126.775390625 9.76457691192627 -19124.607421875 10.50652503967285 -19122.861328125 11.85370922088623 C -19121.064453125 13.23884010314941 -19119.82421875 15.1387882232666 -19119.2734375 17.34812927246094 L -19113.708984375 39.66513061523438 L -19113.70703125 39.66902542114258 L -19113.70703125 39.67289352416992 C -19113.56640625 40.23370742797852 -19113.47265625 40.81647109985352 -19113.4296875 41.40494537353516 L -19113.384765625 42.03389739990234 L -19113.423828125 42.69768142700195 C -19113.55078125 44.77341842651367 -19114.349609375 46.80955123901367 -19115.677734375 48.43102645874023 C -19117.046875 50.10328674316406 -19118.884765625 51.26449966430664 -19120.990234375 51.78910446166992 L -19133.603515625 54.93265533447266 C -19134.40625 55.13286590576172 -19135.22265625 55.23410415649414 -19136.037109375 55.23410415649414 C -19136.92578125 55.23410415649414 -19137.810546875 55.11399841308594 -19138.669921875 54.87710189819336 L -19145 53.13020706176758 L -19145 59.69694519042969 L -19145 116.302864074707 L -19145 122.8692092895508 L -19138.669921875 121.1227874755859 C -19137.810546875 120.8853378295898 -19136.921875 120.7649688720703 -19136.033203125 120.7649688720703 C -19135.220703125 120.7649688720703 -19134.40234375 120.8660278320313 -19133.603515625 121.065315246582 L -19120.994140625 124.2126312255859 C -19118.3984375 124.8589706420898 -19116.21484375 126.4751815795898 -19114.837890625 128.7641296386719 C -19113.462890625 131.0527954101563 -19113.060546875 133.7399444580078 -19113.708984375 136.3306274414063 L -19119.2734375 158.6481323242188 C -19119.82421875 160.8588409423828 -19121.064453125 162.7587890625 -19122.859375 164.1446533203125 C -19124.607421875 165.4923706054688 -19126.7734375 166.2346343994141 -19128.958984375 166.2346496582031 Z" stroke="none"/>
      <path d="M -19128.958984375 161.2346496582031 C -19126.669921875 161.234619140625 -19124.681640625 159.6752777099609 -19124.125 157.4384002685547 L -19118.55859375 135.1190032958984 C -19118.123046875 133.3731842041016 -19118.7265625 132.0019683837891 -19119.123046875 131.3399658203125 C -19119.521484375 130.6773376464844 -19120.451171875 129.5006561279297 -19122.205078125 129.0637817382813 L -19134.810546875 125.9171600341797 C -19135.216796875 125.8161849975586 -19135.626953125 125.7649688720703 -19136.033203125 125.7649688720703 C -19136.47265625 125.7649688720703 -19136.912109375 125.8247528076172 -19137.33984375 125.9426879882813 C -19138.216796875 126.1844253540039 -19139.111328125 126.3029403686523 -19140 126.3029403686523 C -19142.1640625 126.3029403686523 -19144.296875 125.5995483398438 -19146.05859375 124.2588424682617 C -19148.54296875 122.3675308227539 -19150 119.4247512817383 -19150 116.3028411865234 L -19150 59.69693756103516 C -19150 56.57493591308594 -19148.541015625 53.63209533691406 -19146.05859375 51.74077987670898 C -19144.296875 50.39998626708984 -19142.1640625 49.69685363769531 -19140 49.69685363769531 C -19139.111328125 49.69685363769531 -19138.216796875 49.81550979614258 -19137.33984375 50.0572509765625 C -19136.9140625 50.17459487915039 -19136.4765625 50.23409271240234 -19136.037109375 50.23409271240234 C -19135.630859375 50.23409271240234 -19135.220703125 50.18296813964844 -19134.8125 50.08109283447266 L -19122.19921875 46.93718719482422 C -19119.73828125 46.32450103759766 -19118.525390625 44.21487426757813 -19118.416015625 42.39593887329102 C -19118.41015625 42.30765533447266 -19118.404296875 42.22004318237305 -19118.39453125 42.13242340087891 C -19118.4765625 41.65433120727539 -19118.537109375 41.20525741577148 -19118.560546875 40.87484359741211 L -19124.125 18.55640602111816 C -19124.681640625 16.32381248474121 -19126.669921875 14.76456260681152 -19128.962890625 14.76456260681152 C -19129.369140625 14.76456260681152 -19129.779296875 14.81571865081787 -19130.181640625 14.91562461853027 L -19142.80078125 18.06425094604492 C -19143.21875 18.1688117980957 -19143.62109375 18.32406234741211 -19144.828125 18.93124961853027 C -19146.326171875 19.57309341430664 -19147.861328125 20.55987548828125 -19149.392578125 21.86171913146973 C -19153.0625 24.9874382019043 -19156.455078125 29.65412521362305 -19159.474609375 35.73362350463867 C -19162.728515625 42.28090667724609 -19165.296875 49.97743606567383 -19167.111328125 58.61287689208984 C -19169.02734375 67.72709655761719 -19170 77.44634246826172 -19170 87.50062561035156 C -19170 97.55490875244141 -19169.02734375 107.2741546630859 -19167.109375 116.3907775878906 C -19165.294921875 125.0285949707031 -19162.7265625 132.7230987548828 -19159.47265625 139.2666931152344 C -19156.455078125 145.3457183837891 -19153.0625 150.0132446289063 -19149.392578125 153.1396179199219 C -19148.689453125 153.7368469238281 -19147.98046875 154.2734069824219 -19147.26171875 154.7463073730469 C -19146.5390625 155.2214660644531 -19145.880859375 155.7882537841797 -19145.3046875 156.4324645996094 C -19144.841796875 156.9494934082031 -19144.03125 157.6306915283203 -19142.80078125 157.9379425048828 L -19130.177734375 161.0826873779297 C -19129.7734375 161.1835327148438 -19129.365234375 161.2346496582031 -19128.958984375 161.2346496582031 C -19128.958984375 161.2346496582031 -19128.958984375 161.2346496582031 -19128.958984375 161.2346496582031 M -19128.958984375 171.2346496582031 C -19130.162109375 171.2346801757813 -19131.3828125 171.0890350341797 -19132.6015625 170.7845916748047 L -19145.21875 167.6413726806641 C -19148.244140625 166.8856811523438 -19150.82421875 165.2613067626953 -19152.7578125 163.1000061035156 C -19153.80859375 162.4085693359375 -19154.849609375 161.6263732910156 -19155.875 160.7531890869141 C -19160.578125 156.7483062744141 -19164.8046875 151.015380859375 -19168.4296875 143.7132263183594 C -19172.05859375 136.4158782958984 -19174.908203125 127.9103469848633 -19176.896484375 118.446907043457 C -19178.95703125 108.6513442993164 -19180 98.23965454101563 -19180 87.50062561035156 C -19180 76.76162719726563 -19178.95703125 66.34990692138672 -19176.896484375 56.55434417724609 C -19174.908203125 47.08609390258789 -19172.05859375 38.58537673950195 -19168.4296875 31.28325080871582 C -19164.8046875 23.98590660095215 -19160.578125 18.25296783447266 -19155.875 14.2480936050415 C -19153.568359375 12.2854061126709 -19151.1953125 10.78065586090088 -19148.767578125 9.740031242370605 C -19147.671875 9.144374847412109 -19146.484375 8.676593780517578 -19145.21875 8.361124992370605 L -19132.6015625 5.213062286376953 C -19131.384765625 4.909836769104004 -19130.1640625 4.764562129974365 -19128.962890625 4.764562129974365 C -19122.236328125 4.764562129974365 -19116.12109375 9.318462371826172 -19114.421875 16.13981246948242 L -19108.857421875 38.45540618896484 C -19108.640625 39.31893920898438 -19108.505859375 40.18356323242188 -19108.443359375 41.04178237915039 C -19108.212890625 41.68715667724609 -19107.986328125 42.34000015258789 -19107.763671875 42.99940490722656 L -19108.43359375 42.99940490722656 C -19108.818359375 49.36349868774414 -19113.265625 55.01840591430664 -19119.783203125 56.64099884033203 L -19132.39453125 59.78424835205078 C -19133.61328125 60.08853912353516 -19134.833984375 60.23409271240234 -19136.037109375 60.23410034179688 C -19137.392578125 60.23411178588867 -19138.724609375 60.04873275756836 -19140 59.69693756103516 L -19140 116.3028411865234 C -19138.72265625 115.950569152832 -19137.390625 115.7649612426758 -19136.033203125 115.7649612426758 C -19134.83203125 115.7649612426758 -19133.61328125 115.9100875854492 -19132.39453125 116.2134399414063 L -19119.783203125 119.3615036010742 C -19111.744140625 121.3639373779297 -19106.849609375 129.5036315917969 -19108.857421875 137.5422515869141 L -19114.421875 159.8578491210938 C -19116.119140625 166.67724609375 -19122.236328125 171.2345275878906 -19128.958984375 171.2346496582031 Z" stroke="none" fill="#7a9dff"/>
    </g>
  </g>
</svg>
