<svg xmlns="http://www.w3.org/2000/svg" xmlns:xlink="http://www.w3.org/1999/xlink" width="200" height="200" viewBox="0 0 200 200">
  <defs>
    <clipPath id="clip-kitchen">
      <rect width="200" height="200"/>
    </clipPath>
  </defs>
  <g id="kitchen" clip-path="url(#clip-kitchen)">
    <rect width="200" height="200" fill="rgba(255,255,255,0)"/>
    <g id="グループ_42" data-name="グループ 42">
      <path id="パス_233" data-name="パス 233" d="M108,0" transform="translate(0.5 0.5)" fill="none" stroke="#9a855d" stroke-width="20"/>
    </g>
    <g id="グループ_43" data-name="グループ 43" transform="translate(0 2)">
      <g id="合体_11" data-name="合体 11" transform="translate(18400 33)" fill="#fff">
        <path d="M -18266 128.0021514892578 L -18334 128.0021514892578 C -18336.755859375 128.0021514892578 -18338.998046875 125.7584533691406 -18338.998046875 123.0005798339844 L -18338.998046875 65.62873077392578 L -18338.998046875 61.95762634277344 L -18342.5 60.85821151733398 C -18345.005859375 60.07201766967773 -18347.36328125 58.89629745483398 -18349.509765625 57.36368942260742 C -18351.6328125 55.84893035888672 -18353.498046875 54.02103805541992 -18355.056640625 51.93082046508789 C -18358.29296875 47.59381866455078 -18360.001953125 42.43123245239258 -18360.001953125 37.00112533569336 C -18360.001953125 33.62375640869141 -18359.341796875 30.35012435913086 -18358.0390625 27.27116775512695 C -18356.78125 24.29477691650391 -18354.9765625 21.62068939208984 -18352.6796875 19.32314682006836 C -18350.3828125 17.0256462097168 -18347.70703125 15.2224292755127 -18344.732421875 13.96356010437012 C -18341.65234375 12.66136360168457 -18338.37890625 12.0010814666748 -18335.001953125 12.0010814666748 C -18332.021484375 12.0010814666748 -18329.111328125 12.51799488067627 -18326.349609375 13.53749465942383 L -18322.7265625 14.87440776824951 L -18320.517578125 11.70895099639893 C -18318.255859375 8.469603538513184 -18315.22265625 5.777102947235107 -18311.744140625 3.922537803649902 C -18309.9765625 2.979472637176514 -18308.095703125 2.252516269683838 -18306.15625 1.761842250823975 C -18304.158203125 1.255907535552979 -18302.0859375 0.9993857741355896 -18300 0.9993857741355896 C -18297.9140625 0.9993857741355896 -18295.841796875 1.255907535552979 -18293.84375 1.761842250823975 C -18291.904296875 2.252516269683838 -18290.0234375 2.979472637176514 -18288.255859375 3.922537803649902 C -18284.77734375 5.777102947235107 -18281.744140625 8.469603538513184 -18279.482421875 11.70895099639893 L -18277.2734375 14.87440776824951 L -18273.650390625 13.53749465942383 C -18270.888671875 12.51799488067627 -18267.978515625 12.0010814666748 -18265 12.0010814666748 C -18261.623046875 12.0010814666748 -18258.34765625 12.66136360168457 -18255.26953125 13.96358108520508 C -18252.29296875 15.22240734100342 -18249.619140625 17.02560234069824 -18247.322265625 19.32308197021484 C -18245.0234375 21.62051582336426 -18243.220703125 24.29458045959473 -18241.962890625 27.27099418640137 C -18240.66015625 30.34992980957031 -18240 33.62362670898438 -18240 37.00112533569336 C -18240 42.43062591552734 -18241.708984375 47.59266662597656 -18244.943359375 51.9292106628418 C -18246.501953125 54.0192756652832 -18248.3671875 55.84710311889648 -18250.48828125 57.36190795898438 C -18252.634765625 58.89455795288086 -18254.9921875 60.07051467895508 -18257.49609375 60.85703659057617 L -18260.998046875 61.95686340332031 L -18260.998046875 65.62729644775391 L -18260.998046875 123.0005798339844 C -18260.998046875 125.7584533691406 -18263.2421875 128.0021514892578 -18266 128.0021514892578 Z" stroke="none"/>
        <path d="M -18266 123.0021438598633 L -18265.998046875 123.0005874633789 L -18265.998046875 65.62731170654297 L -18265.998046875 58.28644943237305 L -18258.994140625 56.08681106567383 C -18250.623046875 53.45780944824219 -18245 45.78786468505859 -18245 37.00111770629883 C -18245 25.97306060791016 -18253.97265625 17.00108909606934 -18265 17.00108909606934 C -18267.38671875 17.00108909606934 -18269.71484375 17.41392135620117 -18271.919921875 18.22808837890625 L -18279.162109375 20.90194892883301 L -18283.58203125 14.57100486755371 C -18287.330078125 9.203727722167969 -18293.466796875 5.999394416809082 -18300 5.999394416809082 C -18306.533203125 5.999394416809082 -18312.669921875 9.203727722167969 -18316.41796875 14.57100486755371 L -18320.837890625 20.90194892883301 L -18328.080078125 18.22808837890625 C -18330.28515625 17.41392135620117 -18332.615234375 17.00108909606934 -18335.001953125 17.00108909606934 C -18346.029296875 17.00108909606934 -18355.001953125 25.97306060791016 -18355.001953125 37.00111770629883 C -18355.001953125 45.78922653198242 -18349.376953125 53.45953369140625 -18341.00390625 56.08769989013672 L -18333.998046875 58.28653335571289 L -18333.998046875 65.62873077392578 L -18334 123.0021438598633 L -18266 123.0021438598633 M -18266 133.0021514892578 L -18334 133.0021514892578 C -18339.521484375 133.0021514892578 -18343.998046875 128.5221710205078 -18343.998046875 123.0005874633789 L -18343.998046875 65.62873077392578 C -18356.171875 61.80755996704102 -18365.001953125 50.43642044067383 -18365.001953125 37.00111770629883 C -18365.001953125 20.43172836303711 -18351.5703125 7.001088619232178 -18335.001953125 7.001088619232178 C -18331.349609375 7.001088619232178 -18327.8515625 7.6529221534729 -18324.6171875 8.846894264221191 C -18319.1953125 1.080171942710876 -18310.19140625 -4.000605583190918 -18300 -4.000605583190918 C -18289.80859375 -4.000605583190918 -18280.8046875 1.080171942710876 -18275.3828125 8.846894264221191 C -18272.1484375 7.6529221534729 -18268.650390625 7.001088619232178 -18265 7.001088619232178 C -18248.4296875 7.001088619232178 -18235 20.43172836303711 -18235 37.00111770629883 C -18235 50.43439483642578 -18243.826171875 61.80442047119141 -18255.998046875 65.62731170654297 L -18255.998046875 123.0005874633789 C -18255.998046875 128.5221710205078 -18260.478515625 133.0021514892578 -18266 133.0021514892578 Z" stroke="none" fill="#7a9dff"/>
      </g>
      <line id="線_16" data-name="線 16" x2="77" transform="translate(60.5 136.5)" fill="none" stroke="#7a9dff" stroke-width="15"/>
    </g>
  </g>
</svg>
