<svg xmlns="http://www.w3.org/2000/svg" xmlns:xlink="http://www.w3.org/1999/xlink" width="200" height="200" viewBox="0 0 200 200">
  <defs>
    <clipPath id="clip-game">
      <rect width="200" height="200"/>
    </clipPath>
  </defs>
  <g id="game" clip-path="url(#clip-game)">
    <rect width="200" height="200" fill="rgba(255,255,255,0)"/>
    <g id="グループ_42" data-name="グループ 42">
      <path id="パス_233" data-name="パス 233" d="M108,0" transform="translate(0.5 0.5)" fill="none" stroke="#9a855d" stroke-width="20"/>
    </g>
    <g id="グループ_69" data-name="グループ 69" transform="translate(21 50)">
      <rect id="長方形_18" data-name="長方形 18" width="26" height="13" rx="6.5" transform="translate(102 -5)" fill="#7a9dff"/>
      <rect id="長方形_17" data-name="長方形 17" width="25" height="13" rx="6.5" transform="translate(30 -5)" fill="#7a9dff"/>
      <path id="合体_11" data-name="合体 11" d="M113.908,64.207a13,13,0,0,1-3.631.514H48.047a12.994,12.994,0,0,1-3.916-.6c-9.839,22.3-24.564,36.688-34.708,32.966C-1.846,92.953-3.2,68.054,6.4,41.473,15.895,15.175,32.553-2.916,43.818.7A12.986,12.986,0,0,1,48.047,0h62.23a12.987,12.987,0,0,1,4.074.651c11.262-3.388,27.8,14.654,37.251,40.822,9.6,26.581,8.245,51.48-3.023,55.614a9.71,9.71,0,0,1-3.368.585C135.382,97.672,122.7,84.1,113.908,64.207Z" transform="translate(0 1.328)" fill="#fff" stroke="#7a9dff" stroke-linecap="round" stroke-linejoin="round" stroke-width="10"/>
      <circle id="楕円形_16" data-name="楕円形 16" cx="9.5" cy="9.5" r="9.5" transform="translate(33 16)" fill="#7a9dff"/>
      <circle id="楕円形_17" data-name="楕円形 17" cx="10" cy="10" r="10" transform="translate(82 39)" fill="#7a9dff"/>
      <g id="グループ_67" data-name="グループ 67" transform="translate(95.639 8)">
        <g id="グループ_65" data-name="グループ 65" transform="translate(12.572 0)">
          <circle id="楕円形_18" data-name="楕円形 18" cx="6.5" cy="6.5" r="6.5" transform="translate(-0.211)" fill="#7a9dff"/>
          <circle id="楕円形_19" data-name="楕円形 19" cx="6.5" cy="6.5" r="6.5" transform="translate(-0.211 24)" fill="#7a9dff"/>
        </g>
        <g id="グループ_66" data-name="グループ 66" transform="translate(36.794 12.587) rotate(90)">
          <circle id="楕円形_18-2" data-name="楕円形 18" cx="6.315" cy="6.315" r="6.315" fill="#7a9dff"/>
          <circle id="楕円形_19-2" data-name="楕円形 19" cx="6.315" cy="6.315" r="6.315" transform="translate(0 24.164)" fill="#7a9dff"/>
        </g>
      </g>
      <path id="合体_12" data-name="合体 12" d="M6.286,16.064V13.27H3.492a3.492,3.492,0,1,1,0-6.984H6.286V3.492a3.492,3.492,0,0,1,6.985,0V6.286h2.794a3.492,3.492,0,1,1,0,6.984H13.271v2.795a3.492,3.492,0,0,1-6.985,0Z" transform="translate(45.851 39.578)" fill="#7a9dff"/>
    </g>
  </g>
</svg>
