<svg xmlns="http://www.w3.org/2000/svg" xmlns:xlink="http://www.w3.org/1999/xlink" width="200" height="200" viewBox="0 0 200 200">
  <defs>
    <clipPath id="clip-hat">
      <rect width="200" height="200"/>
    </clipPath>
  </defs>
  <g id="hat" clip-path="url(#clip-hat)">
    <rect width="200" height="200" fill="rgba(255,255,255,0)"/>
    <g id="グループ_42" data-name="グループ 42">
      <path id="パス_233" data-name="パス 233" d="M108,0" transform="translate(0.5 0.5)" fill="none" stroke="#9a855d" stroke-width="20"/>
    </g>
    <g id="グループ_71" data-name="グループ 71">
      <g id="合体_16" data-name="合体 16" transform="translate(18650 313.998)" fill="#fff">
        <path d="M -18550.001953125 -165.9998931884766 C -18560.826171875 -165.9998931884766 -18571.314453125 -166.7479705810547 -18581.1796875 -168.2233734130859 C -18590.62890625 -169.6365661621094 -18599.0859375 -171.6494445800781 -18606.31640625 -174.2061004638672 C -18613.185546875 -176.6349945068359 -18618.73046875 -179.5184478759766 -18622.349609375 -182.5446929931641 C -18623.9921875 -183.9184875488281 -18625.22265625 -185.3017120361328 -18626.005859375 -186.6559753417969 C -18626.67578125 -187.8114166259766 -18627 -188.9039001464844 -18627 -189.9958648681641 C -18627 -193.4022216796875 -18623.69140625 -196.537841796875 -18620.916015625 -198.5684967041016 C -18616.23828125 -201.9903259277344 -18609.21484375 -205.1204681396484 -18600.60546875 -207.6205139160156 L -18597 -208.6675262451172 L -18597 -212.4221649169922 L -18597 -248.9978485107422 L -18597 -249.2363128662109 L -18597 -249.4934997558594 C -18597 -251.7043914794922 -18596.033203125 -253.9465484619141 -18594.126953125 -256.1576538085938 C -18591.98046875 -258.6460266113281 -18588.67578125 -261.0264587402344 -18584.56640625 -263.0416259765625 C -18580.16796875 -265.1993713378906 -18575.005859375 -266.9016418457031 -18569.224609375 -268.1011047363281 C -18563.1484375 -269.3619079589844 -18556.6796875 -270.0011596679688 -18550.001953125 -270.0011596679688 C -18543.322265625 -270.0011596679688 -18536.853515625 -269.3619079589844 -18530.775390625 -268.10107421875 C -18524.994140625 -266.901611328125 -18519.83203125 -265.1993713378906 -18515.431640625 -263.0415954589844 C -18511.32421875 -261.0264892578125 -18508.01953125 -258.6460876464844 -18505.873046875 -256.15771484375 C -18503.966796875 -253.9466400146484 -18503 -251.7044677734375 -18503 -249.4934997558594 L -18503 -249.2363128662109 L -18503 -248.9978485107422 L -18503 -212.4213714599609 L -18503 -208.6664886474609 L -18499.39453125 -207.6196136474609 C -18490.783203125 -205.1197204589844 -18483.759765625 -201.9897155761719 -18479.08203125 -198.5680236816406 C -18476.306640625 -196.5376892089844 -18472.998046875 -193.4023895263672 -18472.998046875 -189.9958648681641 C -18472.998046875 -188.9040222167969 -18473.322265625 -187.8116149902344 -18473.9921875 -186.65625 C -18474.775390625 -185.3019866943359 -18476.005859375 -183.9187469482422 -18477.650390625 -182.544921875 C -18481.26953125 -179.5186157226563 -18486.814453125 -176.6351165771484 -18493.68359375 -174.2061462402344 C -18500.9140625 -171.6494903564453 -18509.373046875 -169.6365966796875 -18518.822265625 -168.2233734130859 C -18528.689453125 -166.7479705810547 -18539.177734375 -165.9998931884766 -18550.001953125 -165.9998931884766 Z" stroke="none"/>
        <path d="M -18550.001953125 -170.9998931884766 C -18502.755859375 -170.9998931884766 -18477.998046875 -185.1139526367188 -18477.998046875 -189.9958648681641 C -18477.998046875 -191.65283203125 -18483.3984375 -197.7696685791016 -18500.787109375 -202.8178558349609 L -18508 -204.9116058349609 L -18508 -212.4213562011719 L -18508 -249.4934844970703 C -18508 -254.9606781005859 -18523.947265625 -265.0011291503906 -18550.001953125 -265.0011291503906 C -18576.0546875 -265.0011291503906 -18592 -254.9606781005859 -18592 -248.9978332519531 L -18592 -212.4221801757813 L -18592 -204.9128875732422 L -18599.2109375 -202.8188629150391 C -18616.599609375 -197.7698364257813 -18622 -191.65283203125 -18622 -189.9958648681641 C -18622 -185.1139526367188 -18597.244140625 -170.9998931884766 -18550.001953125 -170.9998931884766 M -18550.001953125 -160.9998931884766 C -18595.2890625 -160.9998931884766 -18632 -173.9805145263672 -18632 -189.9958648681641 C -18632 -199.0335540771484 -18620.314453125 -207.1040802001953 -18602 -212.4221801757813 L -18602 -248.9978332519531 C -18602 -249.0773010253906 -18602 -249.1567993164063 -18602 -249.2362976074219 C -18602 -249.3204803466797 -18602 -249.4093322753906 -18602 -249.4934844970703 C -18602 -263.5823364257813 -18578.716796875 -275.0011291503906 -18550.001953125 -275.0011291503906 C -18521.28125 -275.0011291503906 -18498 -263.5823364257813 -18498 -249.4934844970703 C -18498 -249.4093322753906 -18498 -249.3204803466797 -18498 -249.2362976074219 C -18498 -249.1567993164063 -18498 -249.0773010253906 -18498 -248.9978332519531 L -18498 -212.4213562011719 C -18479.681640625 -207.1033020019531 -18467.998046875 -199.0335540771484 -18467.998046875 -189.9958648681641 C -18467.998046875 -173.9805145263672 -18504.71484375 -160.9998931884766 -18550.001953125 -160.9998931884766 Z" stroke="none" fill="#ff7ab4"/>
      </g>
      <path id="パス_244" data-name="パス 244" d="M0,1s10.454,9.5,53.5,9.5S106,0,106,0" transform="translate(47.5 104.5)" fill="none" stroke="#ff7ab4" stroke-width="15"/>
    </g>
  </g>
</svg>
