<svg xmlns="http://www.w3.org/2000/svg" xmlns:xlink="http://www.w3.org/1999/xlink" width="200" height="200" viewBox="0 0 200 200">
  <defs>
    <clipPath id="clip-book">
      <rect width="200" height="200"/>
    </clipPath>
  </defs>
  <g id="book" clip-path="url(#clip-book)">
    <rect width="200" height="200" fill="rgba(255,255,255,0)"/>
    <g id="グループ_87" data-name="グループ 87">
      <rect id="長方形_1175" data-name="長方形 1175" width="187" height="120" rx="10" transform="translate(7 45)" fill="#aaff7a"/>
      <g id="グループ_86" data-name="グループ 86" transform="translate(0 1)">
        <g id="前面オブジェクトで型抜き_3" data-name="前面オブジェクトで型抜き 3" transform="translate(14 34)" fill="#fff" stroke-linecap="round">
          <path d="M 4.999998092651367 117.2671432495117 L 4.999998092651367 15.64110565185547 C 4.999998092651367 15.08629322052002 5.612852573394775 14.22818946838379 6.639373302459717 13.34562683105469 C 8.322039604187012 11.89896011352539 10.97289371490479 10.49362659454346 14.30533123016357 9.281564712524414 C 21.89472770690918 6.521126747131348 32.08670806884766 5.000897407531738 43.00381088256836 5.000897407531738 C 53.92047882080078 5.000897407531738 64.11139678955078 6.521085262298584 71.69928741455078 9.281459808349609 C 75.03093719482422 10.49341869354248 77.68106079101563 11.89864730834961 79.36318206787109 13.34523105621338 C 80.38949584960938 14.22779369354248 81.00220489501953 15.08606433868408 81.00220489501953 15.64110565185547 L 81.00220489501953 113.4271697998047 C 71.85707092285156 110.8138046264648 60.25643157958984 109.361213684082 48.00149917602539 109.361213684082 C 34.66843414306641 109.361213684082 22.0645809173584 111.0752944946289 12.51168537139893 114.1877136230469 C 9.678140640258789 115.1109008789063 7.16750431060791 116.1406707763672 4.999998092651367 117.2671432495117 Z" stroke="none"/>
          <path d="M 10.00149154663086 109.7542877197266 C 10.31774139404297 109.6463088989258 10.63827514648438 109.5393981933594 10.96278667449951 109.4336700439453 C 21.00249671936035 106.1626434326172 34.15644454956055 104.361198425293 48.00149536132813 104.361198425293 C 58.16611480712891 104.361198425293 67.71253204345703 105.2864761352539 76.00220489501953 107.0324249267578 L 76.00220489501953 17.0512752532959 C 75.24227905273438 16.42365646362305 73.50870513916016 15.26023006439209 69.98999786376953 13.98019886016846 C 62.93607711791992 11.41411972045898 53.35220718383789 10.00090980529785 43.00381469726563 10.00090980529785 C 32.65489196777344 10.00090980529785 23.06986618041992 11.4141731262207 16.0143928527832 13.98038291931152 C 12.83938312530518 15.13519382476807 11.1171178817749 16.19522094726563 10.00002002716064 17.09927749633789 L 10.00149154663086 109.7542877197266 M 0.001812973874621093 129.9995880126953 L 0.000812973827123642 129.9995880126953 L -2.815648031173623e-06 129.9995880126953 L -2.815648031173623e-06 15.64109420776367 C -2.815648031173623e-06 13.53022575378418 1.137102484703064 11.48233032226563 3.379734039306641 9.554251670837402 C 5.545891761779785 7.691883563995361 8.646786689758301 6.019199371337891 12.59628677368164 4.582699298858643 C 20.71960258483887 1.628093838691711 31.51852416992188 0.0009096647845581174 43.00381469726563 0.0009096647845581174 C 54.48873519897461 0.0009096647845581174 65.28670501708984 1.628093838691711 73.40863037109375 4.582699298858643 C 77.35736846923828 6.019172668457031 80.45762634277344 7.691830635070801 82.62331390380859 9.554251670837402 C 84.86536407470703 11.48227787017822 86.00220489501953 13.53019905090332 86.00220489501953 15.64109420776367 L 86.00220489501953 120.4444122314453 C 76.83113098144531 116.5787811279297 62.98091888427734 114.361198425293 48.00149536132813 114.361198425293 C 35.18046951293945 114.361198425293 23.12668228149414 115.9879379272461 14.06060218811035 118.9417495727539 C 9.652365684509277 120.3779907226563 6.191418170928955 122.0504379272461 3.773865699768066 123.9126434326172 C 1.271365642547607 125.8402252197266 0.002260342240333557 127.8878555297852 0.001812973874621093 129.9985961914063 L 0.001812973874621093 129.9995880126953 Z" stroke="none" fill="#aaff7a"/>
        </g>
        <g id="前面オブジェクトで型抜き_4" data-name="前面オブジェクトで型抜き 4" transform="translate(100 34)" fill="#fff" stroke-linecap="round">
          <path d="M 81.00222015380859 117.4204406738281 C 78.6751708984375 116.2267913818359 75.94908142089844 115.1392593383789 72.84925842285156 114.1697158813477 C 62.93550872802734 111.0689086914063 49.84946823120117 109.361198425293 36.00180053710938 109.361198425293 C 24.7000732421875 109.361198425293 13.95484256744385 110.4907455444336 5.000009536743164 112.584587097168 L 5.000009536743164 15.64109420776367 C 5.000009536743164 15.08628177642822 5.612843036651611 14.22817802429199 6.639363765716553 13.34565734863281 C 8.322051048278809 11.89894866943359 10.97288513183594 10.49361515045166 14.30532264709473 9.281552314758301 C 21.89473915100098 6.521136283874512 32.08671951293945 5.000906944274902 43.00380325317383 5.000906944274902 C 53.92044830322266 5.000906944274902 64.11136627197266 6.52109432220459 71.69932556152344 9.281448364257813 C 75.03094482421875 10.49342823028564 77.68105316162109 11.89865684509277 79.3631591796875 13.34521961212158 C 80.38951110839844 14.22782325744629 81.00222015380859 15.08607387542725 81.00222015380859 15.64109420776367 L 81.00222015380859 117.4204406738281 Z" stroke="none"/>
          <path d="M 76.00222015380859 109.9380111694336 L 76.00222015380859 17.05128288269043 C 75.24231719970703 16.42366790771484 73.50874328613281 15.26024913787842 69.99000549316406 13.98019313812256 C 62.93608856201172 11.41411399841309 53.35219192504883 10.00090408325195 43.00379943847656 10.00090408325195 C 32.65487670898438 10.00090408325195 23.06985092163086 11.41416645050049 16.01437759399414 13.98037719726563 C 12.83936786651611 15.13518810272217 11.117112159729 16.19522094726563 10.00000858306885 17.09926986694336 L 10.00000858306885 106.4733276367188 C 17.9221134185791 105.0932693481445 26.79721069335938 104.3611907958984 36.00179672241211 104.3611907958984 C 50.34190368652344 104.3611907958984 63.9580078125 106.1498489379883 74.34185028076172 109.3976898193359 C 74.90742492675781 109.574592590332 75.46096801757813 109.7547149658203 76.00222015380859 109.9380111694336 M 86.00222015380859 129.9645385742188 L 86.00022125244141 129.9645385742188 C 85.987060546875 127.8664855957031 84.66545867919922 125.830322265625 82.07209014892578 123.9126129150391 C 79.55371856689453 122.050407409668 75.94856262207031 120.3779525756836 71.35671997070313 118.9417419433594 C 61.91290283203125 115.9879302978516 49.35695648193359 114.3611907958984 36.00179672241211 114.3611907958984 C 22.29874610900879 114.3611907958984 9.5130615234375 116.0611419677734 8.628443538327701e-06 119.1478500366211 L 8.628443538327701e-06 15.64108753204346 C 8.628443538327701e-06 13.53024578094482 1.137113928794861 11.48229789733887 3.379745483398438 9.554245948791504 C 5.545876979827881 7.691877365112305 8.646771430969238 6.019193172454834 12.59627151489258 4.582693099975586 C 20.7195873260498 1.628087878227234 31.51850891113281 0.000903631909750402 43.00379943847656 0.000903631909750402 C 54.48871994018555 0.000903631909750402 65.28668975830078 1.628087878227234 73.40863800048828 4.582693099975586 C 77.35740661621094 6.019193172454834 80.45766448974609 7.691851139068604 82.62329864501953 9.554245948791504 C 84.86537933349609 11.48229789733887 86.00222015380859 13.53021907806396 86.00222015380859 15.64108753204346 L 86.00222015380859 129.9645385742188 Z" stroke="none" fill="#aaff7a"/>
        </g>
      </g>
    </g>
  </g>
</svg>
