<svg xmlns="http://www.w3.org/2000/svg" xmlns:xlink="http://www.w3.org/1999/xlink" width="200" height="200" viewBox="0 0 200 200">
  <defs>
    <clipPath id="clip-miscellaneousgoods">
      <rect width="200" height="200"/>
    </clipPath>
  </defs>
  <g id="miscellaneousgoods" clip-path="url(#clip-miscellaneousgoods)">
    <rect width="200" height="200" fill="rgba(255,255,255,0)"/>
    <g id="グループ_42" data-name="グループ 42">
      <path id="パス_233" data-name="パス 233" d="M108,0" transform="translate(0.5 0.5)" fill="none" stroke="#9a855d" stroke-width="20"/>
    </g>
    <g id="グループ_81" data-name="グループ 81" transform="translate(4)">
      <g id="パス_251" data-name="パス 251" transform="translate(72.85 165.672) rotate(-161)" fill="#fff">
        <path d="M 19.75001907348633 79.72617340087891 C 19.24390983581543 79.72617340087891 17.91007995605469 79.06275939941406 16.12108039855957 76.57631683349609 C 14.15167999267578 73.839111328125 12.21743392944336 69.71620941162109 10.52743339538574 64.65331268310547 C 8.853034019470215 59.63716125488281 7.456402778625488 53.80763626098633 6.488541126251221 47.79496002197266 C 5.51474142074585 41.7454833984375 5.000018119812012 35.66103744506836 5.000002861022949 30.19937515258789 C 4.999987602233887 24.98188209533691 5.470218181610107 20.48822212219238 6.39763355255127 16.84322166442871 C 7.186295032501221 13.74354457855225 8.311172485351563 11.23362159729004 9.741018295288086 9.383206367492676 C 12.05161571502686 6.392972946166992 15.23248958587646 5.000006198883057 19.74974250793457 5.000006198883057 C 19.75001907348633 5.000006198883057 19.74954223632813 5.000006198883057 19.74981880187988 5.000006198883057 C 21.92329597473145 5.000006198883057 23.81474113464355 5.342005729675293 25.37161827087402 6.01649808883667 C 26.98748016357422 6.716544628143311 28.32377243041992 7.795483112335205 29.45684814453125 9.314990997314453 C 30.83097267150879 11.15774440765381 31.91092491149902 13.67229843139648 32.66667938232422 16.78877449035645 C 33.55125045776367 20.43645286560059 33.99977111816406 24.94846725463867 33.99978637695313 30.19948196411133 C 33.99980163574219 35.69599151611328 33.51012420654297 41.79302215576172 32.58372497558594 47.83143615722656 C 31.65729522705078 53.8700065612793 30.31643295288086 59.70425033569336 28.70606422424316 64.70346832275391 C 27.07375717163086 69.77085113525391 25.19512557983398 73.88976287841797 23.2733097076416 76.61489868164063 C 21.54129600524902 79.07089996337891 20.24367904663086 79.72617340087891 19.75000190734863 79.72617340087891 L 19.75001907348633 79.72617340087891 Z" stroke="none"/>
        <path d="M 19.69499206542969 73.09463500976563 C 23.65460395812988 66.81624603271484 28.99982643127441 49.03850555419922 28.99979019165039 30.19947814941406 C 28.9997501373291 10.00002002716064 22.7521858215332 10 19.74979019165039 10 C 16.08860397338867 10 14.67741584777832 11.17314529418945 13.6978120803833 12.44091606140137 C 12.31679058074951 14.2281665802002 9.999978065490723 18.91187477111816 9.999999046325684 30.19937515258789 C 10.00003528594971 49.03706741333008 15.57657337188721 66.83804321289063 19.69499206542969 73.09463500976563 M 19.75 84.72616577148438 C 8.842436790466309 84.72614288330078 4.092915696674027e-05 53.59587478637695 -7.375081167992903e-07 30.19939613342285 C -4.24041754740756e-05 6.802895545959473 8.842269897460938 -2.128092455677688e-05 19.74983215332031 -4.47591133934111e-07 C 30.65739440917969 2.038574166363105e-05 38.99974822998047 6.802978515625 38.99979019165039 30.1994571685791 C 38.99983215332031 53.5959587097168 30.65756225585938 84.72618865966797 19.75 84.72616577148438 Z" stroke="none" fill="#aaff7a"/>
      </g>
      <g id="パス_249" data-name="パス 249" transform="translate(53.922 81.011)" fill="#fff">
        <path d="M 39.5 96 C 34.17568969726563 96 29.41549110412598 95.47846984863281 25.35161781311035 94.44992828369141 C 21.09396362304688 93.37232971191406 17.4843635559082 91.70687103271484 14.62310886383057 89.49983978271484 C 11.56525421142578 87.14114379882813 9.301563262939453 84.17379760742188 7.702636241912842 80.42823791503906 C 5.909308910369873 76.22718048095703 5 71.03638458251953 5 65 C 5 58.61138153076172 6.0135817527771 51.48149108886719 7.931163787841797 44.38112640380859 C 9.845854759216309 37.29152679443359 12.61241817474365 30.41129112243652 15.93176364898682 24.4842357635498 C 19.32858276367188 18.4188175201416 23.26469039916992 13.43950939178467 27.31452751159668 10.08458137512207 C 31.38727188110352 6.710709095001221 35.48705291748047 5 39.5 5 C 43.48981857299805 5 47.52430725097656 6.70005464553833 51.49140167236328 10.05294513702393 C 55.43770980834961 13.38825416564941 59.25548934936523 18.35572814941406 62.53201675415039 24.41836357116699 C 65.72265625 30.32207298278809 68.37765502929688 37.20529174804688 70.20998382568359 44.32387161254883 C 72.03524017333984 51.41490936279297 73 58.56460189819336 73 65 C 73 71.08319854736328 72.13223266601563 76.30049133300781 70.42079925537109 80.50694274902344 C 68.89476013183594 84.25770568847656 66.73200225830078 87.21676635742188 63.80889129638672 89.55323791503906 C 61.07094573974609 91.74169158935547 57.59203720092773 93.39118194580078 53.46883773803711 94.45587158203125 C 49.50089263916016 95.48049163818359 44.80109024047852 96 39.5 96 Z" stroke="none"/>
        <path d="M 39.5 10 C 25.99065780639648 10 10 39.81309127807617 10 65 C 10 83.46729278564453 18.54672622680664 91 39.5 91 C 60.00933837890625 91 68 83.71027374267578 68 65 C 68 39.29906845092773 52.8177490234375 10 39.5 10 M 39.5 0 C 61.31525039672852 0 78 37.10961532592773 78 65 C 78 92.89038848876953 61.31525039672852 101 39.5 101 C 17.68474960327148 101 0 92.89038848876953 0 65 C 0 37.10961532592773 17.68474960327148 0 39.5 0 Z" stroke="none" fill="#aaff7a"/>
      </g>
      <g id="パス_250" data-name="パス 250" transform="translate(97.541 93.562) rotate(-19)" fill="#fff">
        <path d="M 19.75 79.72621154785156 C 15.23226165771484 79.72621154785156 12.05184650421143 78.33341217041016 9.741092681884766 75.34296417236328 C 8.311230659484863 73.49253082275391 7.186338424682617 70.98262786865234 6.397661685943604 67.8829345703125 C 5.470246315002441 64.2379150390625 5 59.74425506591797 5 54.52676391601563 C 5 49.06510162353516 5.514723300933838 42.98065567016602 6.488507747650146 36.93119430541992 C 7.456369400024414 30.91850280761719 8.852999687194824 25.08897972106934 10.52740001678467 20.07282447814941 C 12.21738433837891 15.00994777679443 14.15164661407471 10.88704013824463 16.12104606628418 8.149855613708496 C 17.9100456237793 5.663394451141357 19.24389266967773 4.999994277954102 19.75 4.999994277954102 C 20.24369239807129 4.999994277954102 21.54132270812988 5.65528678894043 23.27336883544922 8.111286163330078 C 25.19521522521973 10.83644008636475 27.0738468170166 14.95536327362061 28.70618438720703 20.02274894714355 C 30.31656837463379 25.02196311950684 31.65746116638184 30.85622596740723 32.58389282226563 36.89479446411133 C 33.51032257080078 42.93322372436523 34 49.03025436401367 34 54.52676391601563 C 34 59.77776336669922 33.55147552490234 64.28977966308594 32.66690826416016 67.93746948242188 C 31.91115379333496 71.05394744873047 30.83121490478516 73.56848907470703 29.45709228515625 75.41123962402344 C 28.32401466369629 76.93074798583984 26.98770713806152 78.00968933105469 25.37184524536133 78.709716796875 C 23.81493759155273 79.38420867919922 21.92347717285156 79.72621154785156 19.75 79.72621154785156 Z" stroke="none"/>
        <path d="M 19.69525909423828 11.63102722167969 C 15.57684516906738 17.88761901855469 10 35.6890754699707 10 54.52676773071289 C 10 74.72620391845703 16.58526992797852 74.72620391845703 19.75 74.72620391845703 C 22.75241661071777 74.72620391845703 29 74.72620391845703 29 54.52676773071289 C 29 35.68712997436523 23.6546745300293 17.9090576171875 19.69525909423828 11.63102722167969 M 19.75 0 C 30.65762519836426 0 39 31.13026809692383 39 54.52676773071289 C 39 77.92327117919922 30.65762519836426 84.72620391845703 19.75 84.72620391845703 C 8.842374801635742 84.72620391845703 0 77.92327117919922 0 54.52676773071289 C 0 31.13026809692383 8.842374801635742 0 19.75 0 Z" stroke="none" fill="#aaff7a"/>
      </g>
      <g id="グループ_80" data-name="グループ 80" transform="translate(39.262 14.011)">
        <g id="楕円形_54" data-name="楕円形 54" transform="matrix(0.995, -0.105, 0.105, 0.995, 0, 5.749)" fill="#fff" stroke="#aaff7a" stroke-width="10">
          <ellipse cx="27.5" cy="30" rx="27.5" ry="30" stroke="none"/>
          <ellipse cx="27.5" cy="30" rx="22.5" ry="25" fill="none"/>
        </g>
        <g id="楕円形_53" data-name="楕円形 53" transform="matrix(0.995, -0.105, 0.105, 0.995, 58.567, 5.749)" fill="#fff" stroke="#aaff7a" stroke-width="10">
          <ellipse cx="27.5" cy="30" rx="27.5" ry="30" stroke="none"/>
          <ellipse cx="27.5" cy="30" rx="22.5" ry="25" fill="none"/>
        </g>
        <g id="合体_17" data-name="合体 17" transform="translate(5.738 10.989)" fill="#fff">
          <path d="M 51.93163299560547 85 C 51.00181579589844 85 50.06093215942383 84.96779632568359 49.13510131835938 84.904296875 L 48.81946563720703 84.88265228271484 L 48.50361633300781 84.90097045898438 C 47.36993408203125 84.96668243408203 46.21609878540039 85 45.07421493530273 85 C 39.47740173339844 85 34.0587158203125 84.22498321533203 28.96865081787109 82.69650268554688 C 24.12330055236816 81.24148559570313 19.79280090332031 79.17361450195313 16.09745025634766 76.55031585693359 C 12.528733253479 74.01689910888672 9.74981689453125 71.10543060302734 7.837883472442627 67.89676666259766 C 5.954800128936768 64.73653411865234 5 61.40715026855469 5 58.00113296508789 C 5 55.56689834594727 5.493516445159912 53.15096664428711 6.466816902160645 50.82044982910156 C 7.440066814422607 48.49008178710938 8.888833045959473 46.24596786499023 10.77286624908447 44.15043258666992 L 11.88059997558594 42.91835021972656 L 12.0333833694458 41.2685661315918 C 12.94786643981934 31.3931827545166 17.50368309020996 22.24539947509766 24.8615837097168 15.51035022735596 C 32.26606750488281 8.732649803161621 41.87973403930664 5 51.93163299560547 5 C 57.34336853027344 5 62.59073257446289 6.057400226593018 67.52796936035156 8.142833709716797 C 72.29883575439453 10.15799999237061 76.58456420898438 13.04374980926514 80.26611328125 16.71993255615234 C 83.94713592529297 20.39559936523438 86.8365478515625 24.67416572570801 88.85410308837891 29.43678283691406 C 90.94156646728516 34.36444854736328 92 39.6014518737793 92 45.00233459472656 C 92 50.40313339233398 90.94158172607422 55.63986587524414 88.85416412353516 60.56703186035156 C 86.83668518066406 65.3291015625 83.94733428955078 69.60708618164063 80.26636505126953 73.28216552734375 C 76.58491516113281 76.95771789550781 72.29921722412109 79.84296417236328 67.52828216552734 81.85776519775391 C 62.59103393554688 83.94280242919922 57.34356689453125 85 51.93163299560547 85 Z" stroke="none"/>
          <path d="M 51.93163681030273 80 C 71.26838684082031 80 87 64.30010986328125 87 45.00234222412109 C 87 25.70197677612305 71.26838684082031 10 51.93163681030273 10 C 33.69931793212891 10 18.68715858459473 23.64075088500977 17.0120677947998 41.72959136962891 L 16.70652198791504 45.02915954589844 L 14.49104499816895 47.49333953857422 C 11.51099967956543 50.80791091918945 10 54.3432502746582 10 58.00113677978516 C 10 69.92575073242188 26.0620231628418 80 45.07422637939453 80 C 46.13138580322266 80 47.17863464355469 79.9693603515625 48.21436309814453 79.90933990478516 L 48.84604644775391 79.87272644042969 L 49.477294921875 79.91602325439453 C 50.28827285766602 79.97165679931641 51.10691070556641 80 51.93163681030273 80 M 51.93163681030273 90 C 50.876953125 90 49.8300666809082 89.96372985839844 48.79297637939453 89.89259338378906 C 47.56641006469727 89.96368408203125 46.3261833190918 90 45.07422637939453 90 C 20.18359184265137 90 0 75.67277526855469 0 58.00113677978516 C 0 51.67304611206055 2.589840888977051 45.77354431152344 7.054681777954102 40.80749893188477 C 9.173840522766113 17.92327308654785 28.45897674560547 0 51.93163681030273 0 C 76.82032012939453 0 97 20.15074920654297 97 45.00234222412109 C 97 69.85395812988281 76.82032012939453 90 51.93163681030273 90 Z" stroke="none" fill="#aaff7a"/>
        </g>
      </g>
      <g id="合体_18" data-name="合体 18" transform="translate(69 134.011)" fill="#fff">
        <path d="M 42 41 L 21 41 C 16.72624969482422 41 12.70828723907471 39.33571243286133 9.686287879943848 36.31371307373047 C 6.664287567138672 33.29171371459961 5 29.27376174926758 5 25 L 5 21 C 5 16.72624969482422 6.664287567138672 12.70829963684082 9.686287879943848 9.686287879943848 C 12.70829963684082 6.664287567138672 16.72624969482422 5 21 5 L 42 5 C 46.27376174926758 5 50.29171371459961 6.664287567138672 53.31371307373047 9.686287879943848 C 56.33571243286133 12.70828723907471 58 16.72624969482422 58 21 L 58 25 C 58 29.27376174926758 56.33571243286133 33.29171371459961 53.31371307373047 36.31371307373047 C 50.29171371459961 39.33571243286133 46.27376174926758 41 42 41 Z" stroke="none"/>
        <path d="M 21 10 C 14.9345817565918 10 10 14.9345817565918 10 21 L 10 25 C 10 31.0654182434082 14.9345817565918 36 21 36 L 42 36 C 48.0654182434082 36 53 31.0654182434082 53 25 L 53 21 C 53 14.9345817565918 48.0654182434082 10 42 10 L 21 10 M 21 0 L 42 0 C 53.59798049926758 0 63 9.402019500732422 63 21 L 63 25 C 63 36.59798049926758 53.59798049926758 46 42 46 L 21 46 C 9.402019500732422 46 0 36.59798049926758 0 25 L 0 21 C 0 9.402019500732422 9.402019500732422 0 21 0 Z" stroke="none" fill="#aaff7a"/>
      </g>
      <path id="多角形_7" data-name="多角形 7" d="M19.611,8.047a5,5,0,0,1,8.779,0L43.967,36.606A5,5,0,0,1,39.577,44H8.423a5,5,0,0,1-4.389-7.394Z" transform="translate(82.735 131.605) rotate(-90)" fill="#aaff7a"/>
      <path id="多角形_8" data-name="多角形 8" d="M14.505,9.227a5,5,0,0,1,8.99,0l11,22.584A5,5,0,0,1,30,39H8A5,5,0,0,1,3.5,31.811Z" transform="translate(99.758 88.195) rotate(90)" fill="#aaff7a"/>
      <circle id="楕円形_57" data-name="楕円形 57" cx="6.5" cy="6.5" r="6.5" transform="translate(102 56.734)" fill="#aaff7a"/>
      <circle id="楕円形_58" data-name="楕円形 58" cx="6.5" cy="6.5" r="6.5" transform="translate(67 56.734)" fill="#aaff7a"/>
      <path id="多角形_9" data-name="多角形 9" d="M4.755,6.221a3,3,0,0,1,5.49,0l2.9,6.568A3,3,0,0,1,10.4,17H4.6a3,3,0,0,1-2.745-4.211Z" transform="translate(95.697 62.881) rotate(65)" fill="#aaff7a"/>
      <g id="楕円形_56" data-name="楕円形 56" transform="translate(30 127.011)" fill="#fff" stroke="#aaff7a" stroke-width="10">
        <ellipse cx="25.5" cy="29.5" rx="25.5" ry="29.5" stroke="none"/>
        <ellipse cx="25.5" cy="29.5" rx="20.5" ry="24.5" fill="none"/>
      </g>
      <g id="楕円形_59" data-name="楕円形 59" transform="translate(69 127.011)" fill="#fff" stroke="#aaff7a" stroke-width="10">
        <ellipse cx="25.5" cy="29.5" rx="25.5" ry="29.5" stroke="none"/>
        <ellipse cx="25.5" cy="29.5" rx="20.5" ry="24.5" fill="none"/>
      </g>
    </g>
  </g>
</svg>
