<svg xmlns="http://www.w3.org/2000/svg" xmlns:xlink="http://www.w3.org/1999/xlink" width="200" height="200" viewBox="0 0 200 200">
  <defs>
    <clipPath id="clip-shoes">
      <rect width="200" height="200"/>
    </clipPath>
  </defs>
  <g id="shoes" clip-path="url(#clip-shoes)">
    <rect width="200" height="200" fill="rgba(255,255,255,0)"/>
    <g id="グループ_42" data-name="グループ 42">
      <path id="パス_233" data-name="パス 233" d="M108,0" transform="translate(0.5 0.5)" fill="none" stroke="#9a855d" stroke-width="20"/>
    </g>
    <g id="グループ_77" data-name="グループ 77" transform="translate(-8 5)">
      <g id="グループ_75" data-name="グループ 75">
        <g id="パス_247" data-name="パス 247" transform="translate(127 155.69) rotate(180)" fill="#fff">
          <path d="M 50.48851776123047 121.6904373168945 C 49.67973327636719 121.6904373168945 48.69631576538086 120.840446472168 47.90028762817383 119.4615783691406 L 36.53149795532227 95.08223724365234 L 36.45751953125 94.92357635498047 L 36.37261962890625 94.77047729492188 C 35.42612075805664 93.06375885009766 34.90485763549805 90.84209442138672 34.90485763549805 88.51475524902344 C 34.90485763549805 86.18743896484375 35.42609786987305 83.96579742431641 36.37260055541992 82.25909423828125 L 36.79182052612305 81.503173828125 L 36.93291854858398 80.65037536621094 L 48.22612380981445 12.39923477172852 C 48.95412826538086 11.32997417449951 49.78706359863281 10.69045734405518 50.48851776123047 10.69045734405518 C 51.32352066040039 10.69045734405518 52.34469985961914 11.59649753570557 53.15353775024414 13.05501747131348 L 91.53224182128906 82.25907897949219 C 92.47873687744141 83.96579742431641 93 86.18745422363281 93 88.51477813720703 C 93 90.39833831787109 92.65853118896484 92.21278381347656 92.02657318115234 93.74095153808594 L 54.83143997192383 117.5390777587891 L 53.76662063598633 118.2203598022461 L 53.15353775024414 119.3258590698242 C 52.34468078613281 120.7843780517578 51.32352066040039 121.6904373168945 50.48851776123047 121.6904373168945 Z" stroke="none"/>
          <path d="M 51.85420989990234 21.10140991210938 L 41.86583709716797 81.46659851074219 L 41.58363342285156 83.17217254638672 L 40.74520874023438 84.68402099609375 C 39.63336944580078 86.68888854980469 39.63336944580078 90.34067535400391 41.06299591064453 92.96907043457031 L 50.95918273925781 114.0807647705078 L 52.13671112060547 113.3273620605469 L 87.80072021484375 90.50888824462891 C 88.19656372070313 88.55569458007813 87.98285675048828 86.16845703125 87.15962982177734 84.68402099609375 L 51.85420989990234 21.10140991210938 M 50.488525390625 5.690437316894531 C 53.09420776367188 5.690437316894531 55.69989013671875 7.336990356445313 57.52615356445313 10.63009643554688 L 95.90483856201172 79.83415222167969 C 98.6983642578125 84.87141418457031 98.6983642578125 92.15812683105469 95.90483856201172 97.19541168212891 L 57.52615356445313 121.7507781982422 C 55.69989013671875 125.0438842773438 53.09420776367188 126.6904373168945 50.488525390625 126.6904373168945 C 47.88284301757813 126.6904373168945 45.27715301513672 125.0438842773438 43.45088958740234 121.7507781982422 L 32 97.19541168212891 C 29.20647430419922 92.15812683105469 29.20647430419922 84.87141418457031 32 79.83415222167969 L 43.45088958740234 10.63009643554688 C 45.27715301513672 7.336990356445313 47.88284301757813 5.690437316894531 50.488525390625 5.690437316894531 Z" stroke="none" fill="#ff7ab4"/>
        </g>
        <g id="グループ_74" data-name="グループ 74">
          <path id="パス_248" data-name="パス 248" d="M26,0H39A26,26,0,0,1,65,26a108.322,108.322,0,0,0-5,32c0,17.625,5,38.5,5,38.5a32.5,32.5,0,0,1-65,0V26A26,26,0,0,1,26,0Z" transform="translate(44 29)" fill="#ff7ab4"/>
          <g id="パス_245" data-name="パス 245" transform="translate(40 98)" fill="#fff">
            <path d="M 34.5 59 C 30.47005271911621 59 26.56628036499023 58.27013397216797 22.89711952209473 56.83066558837891 C 19.37319946289063 55.44818496704102 16.21325302124023 53.47353363037109 13.50502681732178 50.9615592956543 C 10.82354640960693 48.47437286376953 8.722586631774902 45.58757400512695 7.260506629943848 42.38130569458008 C 5.760546684265137 39.09198760986328 5 35.59921264648438 5 32 C 5 28.7340259552002 5.610706806182861 26.23350715637207 6.867013454437256 24.35553359985352 C 7.960000038146973 22.7216796875 9.635613441467285 21.46175956726074 11.98958683013916 20.50374603271484 C 14.41146659851074 19.51809310913086 17.54001426696777 18.84961318969727 21.55397415161133 18.46009254455566 C 25.73190689086914 18.05466651916504 30.44278717041016 18 34.5 18 C 38.55721282958984 18 43.26809310913086 18.05466651916504 47.44602584838867 18.46009254455566 C 51.45998764038086 18.84961318969727 54.58853149414063 19.51809310913086 57.01041412353516 20.50374603271484 C 59.36438751220703 21.46175956726074 61.04000091552734 22.7216796875 62.13298797607422 24.35553359985352 C 63.3892936706543 26.23350715637207 64 28.7340259552002 64 32 C 64 35.59921264648438 63.23945236206055 39.09198760986328 61.73949432373047 42.38130569458008 C 60.27741241455078 45.58757400512695 58.17645263671875 48.47437286376953 55.49497222900391 50.9615592956543 C 52.78674697875977 53.47353363037109 49.62680053710938 55.44818496704102 46.10287857055664 56.83066558837891 C 42.43371963500977 58.27013397216797 38.52994537353516 59 34.5 59 Z" stroke="none"/>
            <path d="M 34.5 23 C 10 23 10 26.77508163452148 10 32 C 10 44.13084030151367 20.99066162109375 54 34.5 54 C 48.00933837890625 54 59 44.13084030151367 59 32 C 59 26.77508163452148 59 23 34.5 23 M 34.5 13 C 53.55381774902344 13 69 14.32688140869141 69 32 C 69 49.67311859130859 53.55381774902344 64 34.5 64 C 15.4461784362793 64 0 49.67311859130859 0 32 C 0 14.32688140869141 15.4461784362793 13 34.5 13 Z" stroke="none" fill="#ff7ab4"/>
          </g>
          <g id="グループ_72" data-name="グループ 72">
            <line id="線_23" data-name="線 23" x1="32" transform="translate(62.644 92.5) rotate(30)" fill="none" stroke="#fff" stroke-linecap="round" stroke-width="10"/>
            <line id="線_24" data-name="線 24" x1="32" transform="translate(62.645 108.5) rotate(-30)" fill="none" stroke="#fff" stroke-linecap="round" stroke-width="10"/>
          </g>
          <g id="グループ_73" data-name="グループ 73" transform="translate(0 -18)">
            <line id="線_23-2" data-name="線 23" x1="32" transform="translate(62.644 92.5) rotate(30)" fill="none" stroke="#fff" stroke-linecap="round" stroke-width="10"/>
            <line id="線_24-2" data-name="線 24" x1="32" transform="translate(62.645 108.5) rotate(-30)" fill="none" stroke="#fff" stroke-linecap="round" stroke-width="10"/>
          </g>
        </g>
        <path id="パス_246" data-name="パス 246" d="M0,0S8.75,6.5,17.5,6.5,35,0,35,0" transform="translate(58.5 57.5)" fill="none" stroke="#fff" stroke-linecap="round" stroke-width="10"/>
      </g>
      <g id="グループ_76" data-name="グループ 76" transform="matrix(0.921, -0.391, 0.391, 0.921, 79.196, 49.916)">
        <g id="パス_247-2" data-name="パス 247" transform="translate(11.905 0)" fill="#fff">
          <path d="M 20.58367729187012 116 C 19.88222122192383 116 19.04928970336914 115.3604507446289 18.32127952575684 114.2911911010742 L 7.028077125549316 46.04005432128906 L 6.886976718902588 45.187255859375 L 6.467756748199463 44.43133544921875 C 5.521256923675537 42.72463607788086 4.999997138977051 40.50299453735352 4.999997138977051 38.17565536499023 C 4.999997138977051 35.84833526611328 5.521256923675537 33.6266975402832 6.467756748199463 31.91997528076172 L 6.552676677703857 31.76687622070313 L 6.626657009124756 31.60821533203125 L 17.99546241760254 7.228857040405273 C 18.79146957397461 5.850007057189941 19.77487182617188 5.000016212463379 20.58367729187012 5.000016212463379 C 21.41867637634277 5.000016212463379 22.4398365020752 5.906075954437256 23.24869728088379 7.364596366882324 L 23.86177635192871 8.470096588134766 L 24.92659759521484 9.151375770568848 L 62.12172317504883 32.94947814941406 C 62.75368118286133 34.47765350341797 63.09515762329102 36.29209518432617 63.09515762329102 38.17565536499023 C 63.09515762329102 40.50299453735352 62.57389831542969 42.72463607788086 61.62739562988281 44.43133544921875 L 23.24871635437012 113.6354141235352 C 22.4398365020752 115.0939331054688 21.41867637634277 116 20.58367729187012 116 Z" stroke="none"/>
          <path d="M 21.95951271057129 105.6504974365234 L 57.25478744506836 42.00641632080078 C 58.0780143737793 40.52197647094727 58.29172515869141 38.13473892211914 57.89587783813477 36.18154907226563 L 22.23186683654785 13.3631010055542 L 21.05488014221191 12.49109268188477 L 10.84039306640625 34.34486389160156 C 9.728524208068848 36.34975814819336 9.728524208068848 40.00154876708984 10.84036636352539 42.00641632080078 L 11.67878723144531 43.51826095581055 L 11.96099758148193 45.22383880615234 L 21.95951271057129 105.6504974365234 M 20.58367919921875 121 C 17.97799110412598 121 15.37230014801025 119.3534469604492 13.54602432250977 116.0603408813477 L 2.095155954360962 46.85628509521484 C -0.6983704566955566 41.81902313232422 -0.6983704566955566 34.53231048583984 2.095155954360962 29.49502182006836 L 13.54602432250977 4.939680576324463 C 15.37230014801025 1.646561980247498 17.97799110412598 2.764249984466005e-06 20.58367919921875 2.764249984466005e-06 C 23.18936729431152 2.764249984466005e-06 25.7950496673584 1.646561980247498 27.62131309509277 4.939680576324463 L 66 29.49502182006836 C 68.79352569580078 34.53231048583984 68.79352569580078 41.81902313232422 66 46.85628509521484 L 27.62131309509277 116.0603408813477 C 25.7950496673584 119.3534469604492 23.18936729431152 121 20.58367919921875 121 Z" stroke="none" fill="#ff7ab4"/>
        </g>
        <g id="グループ_74-2" data-name="グループ 74" transform="translate(0)">
          <path id="パス_248-2" data-name="パス 248" d="M39,0H26A26,26,0,0,0,0,26,108.322,108.322,0,0,1,5,58C5,75.625,0,96.5,0,96.5a32.5,32.5,0,0,0,65,0V26A26,26,0,0,0,39,0Z" fill="#ff7ab4"/>
          <g id="パス_245-2" data-name="パス 245" transform="translate(0 69)" fill="#fff">
            <path d="M 34.50000381469727 59 C 30.47005653381348 59 26.5662841796875 58.27013397216797 22.89712333679199 56.83066558837891 C 19.37320327758789 55.44818496704102 16.2132568359375 53.47353363037109 13.50503063201904 50.9615592956543 C 10.8235502243042 48.47437286376953 8.722590446472168 45.58757400512695 7.260510444641113 42.38130569458008 C 5.760550498962402 39.09198760986328 5.000003814697266 35.59921264648438 5.000003814697266 32 C 5.000003814697266 28.7340259552002 5.610710620880127 26.23350715637207 6.867017269134521 24.35553359985352 C 7.960003852844238 22.7216796875 9.635617256164551 21.46175956726074 11.98959064483643 20.50374603271484 C 14.41147041320801 19.51809310913086 17.54001808166504 18.84961318969727 21.55397796630859 18.46009254455566 C 25.73191070556641 18.05466651916504 30.44279098510742 18 34.50000381469727 18 C 38.55721664428711 18 43.26809692382813 18.05466651916504 47.44602966308594 18.46009254455566 C 51.45999145507813 18.84961318969727 54.58853530883789 19.51809310913086 57.01041793823242 20.50374603271484 C 59.3643913269043 21.46175956726074 61.04000473022461 22.7216796875 62.13299179077148 24.35553359985352 C 63.38929748535156 26.23350715637207 64 28.7340259552002 64 32 C 64 35.59921264648438 63.23945617675781 39.09198760986328 61.73949813842773 42.38130569458008 C 60.27741622924805 45.58757400512695 58.17645645141602 48.47437286376953 55.49497604370117 50.9615592956543 C 52.78675079345703 53.47353363037109 49.62680435180664 55.44818496704102 46.10288238525391 56.83066558837891 C 42.43372344970703 58.27013397216797 38.52994918823242 59 34.50000381469727 59 Z" stroke="none"/>
            <path d="M 34.50000381469727 23 C 10.00000381469727 23 10.00000381469727 26.77508163452148 10.00000381469727 32 C 10.00000381469727 44.13084030151367 20.99066543579102 54 34.50000381469727 54 C 48.00934600830078 54 59.00000381469727 44.13084030151367 59.00000381469727 32 C 59.00000381469727 26.77508163452148 59.00000381469727 23 34.50000381469727 23 M 34.50000381469727 13 C 53.55382537841797 13 69 14.32688140869141 69 32 C 69 49.67311859130859 53.55382537841797 64 34.50000381469727 64 C 15.44618225097656 64 7.62939453125e-06 49.67311859130859 7.62939453125e-06 32 C 7.62939453125e-06 14.32688140869141 15.44618225097656 13 34.50000381469727 13 Z" stroke="none" fill="#ff7ab4"/>
          </g>
          <g id="グループ_72-2" data-name="グループ 72" transform="translate(18.643 63.5)">
            <line id="線_23-3" data-name="線 23" x1="32" transform="translate(27.714 0) rotate(150)" fill="none" stroke="#fff" stroke-linecap="round" stroke-width="10"/>
            <line id="線_24-3" data-name="線 24" x1="32" transform="translate(27.713 16) rotate(-150)" fill="none" stroke="#fff" stroke-linecap="round" stroke-width="10"/>
          </g>
          <g id="グループ_73-2" data-name="グループ 73" transform="translate(18.643 45.5)">
            <line id="線_23-4" data-name="線 23" x1="32" transform="translate(27.714 0) rotate(150)" fill="none" stroke="#fff" stroke-linecap="round" stroke-width="10"/>
            <line id="線_24-4" data-name="線 24" x1="32" transform="translate(27.713 16) rotate(-150)" fill="none" stroke="#fff" stroke-linecap="round" stroke-width="10"/>
          </g>
        </g>
        <path id="パス_246-2" data-name="パス 246" d="M35,0S26.25,6.5,17.5,6.5,0,0,0,0" transform="translate(15.5 28.5)" fill="none" stroke="#fff" stroke-linecap="round" stroke-width="10"/>
      </g>
    </g>
  </g>
</svg>
