<svg xmlns="http://www.w3.org/2000/svg" xmlns:xlink="http://www.w3.org/1999/xlink" width="200" height="200" viewBox="0 0 200 200">
  <defs>
    <clipPath id="clip-食器">
      <rect width="200" height="200"/>
    </clipPath>
  </defs>
  <g id="食器" clip-path="url(#clip-食器)">
    <rect width="200" height="200" fill="rgba(255,255,255,0)"/>
    <g id="グループ_138" data-name="グループ 138" transform="translate(0 -12)">
      <g id="楕円形_80" data-name="楕円形 80" transform="translate(0 88)" fill="#fff" stroke="#aaff7a" stroke-width="10">
        <ellipse cx="100" cy="37.5" rx="100" ry="37.5" stroke="none"/>
        <ellipse cx="100" cy="37.5" rx="95" ry="32.5" fill="none"/>
      </g>
      <g id="楕円形_79" data-name="楕円形 79" transform="translate(45 100)" fill="#fff" stroke="#aaff7a" stroke-width="5">
        <ellipse cx="55" cy="20" rx="55" ry="20" stroke="none"/>
        <ellipse cx="55" cy="20" rx="52.5" ry="17.5" fill="none"/>
      </g>
      <g id="グループ_137" data-name="グループ 137">
        <g id="パス_266" data-name="パス 266" transform="translate(59.822 102.081)" fill="#fff">
          <path d="M 39.71111679077148 32.58519744873047 C 29.93811798095703 32.58519744873047 21.201904296875 31.20526885986328 15.11178874969482 28.6995964050293 C 11.85286045074463 27.35876846313477 10.13136100769043 26.01342582702637 9.261075019836426 25.12092590332031 C 8.424288749694824 24.26279640197754 8.000003814697266 23.45699691772461 8.000003814697266 22.72592544555664 C 8.000003814697266 22.33341026306152 8.12950325012207 20.86519622802734 9.795760154724121 18.45201110839844 C 11.2827033996582 16.29852485656738 13.46943187713623 14.15765380859375 16.1195182800293 12.26083946228027 C 19.9080753326416 9.549139976501465 28.01080322265625 4.999996662139893 39.71111679077148 4.999996662139893 C 44.34661865234375 4.999996662139893 48.99597549438477 5.718425273895264 53.53004455566406 7.135339736938477 C 57.54666137695313 8.39054012298584 61.44358825683594 10.20671081542969 64.79953002929688 12.38752555847168 C 67.81454467773438 14.34679698944092 70.31334686279297 16.53139686584473 72.02581787109375 18.70516777038574 C 73.51579284667969 20.59651184082031 74.04446411132813 22.05319595336914 74.04446411132813 22.72592544555664 C 74.04446411132813 23.86129760742188 71.84201812744141 26.37314033508301 65.77437591552734 28.63963890075684 C 62.49441909790039 29.86482620239258 58.61767578125 30.83089637756348 54.2518196105957 31.51101112365723 C 49.67626190185547 32.22378158569336 44.78406143188477 32.58519744873047 39.71111679077148 32.58519744873047 Z" stroke="none"/>
          <path d="M 39.71111297607422 9.999996185302734 C 24.41900253295898 9.999996185302734 15.01779174804688 18.66944122314453 13.26493072509766 22.05740928649902 C 15.73696136474609 24.13520431518555 24.29302215576172 27.58519744873047 39.71111297607422 27.58519744873047 C 54.54795455932617 27.58519744873047 64.66057586669922 24.30672836303711 68.28666687011719 21.95856857299805 C 65.13980102539063 17.75552749633789 54.21950531005859 9.999996185302734 39.71111297607422 9.999996185302734 M 39.71111297607422 -3.814697265625e-06 C 61.43433380126953 -3.814697265625e-06 79.04447174072266 14.27801704406738 79.04447174072266 22.72593688964844 C 79.04447174072266 31.17383575439453 61.43433380126953 37.58519744873047 39.71111297607422 37.58519744873047 C 17.9879150390625 37.58519744873047 2.999992370605469 31.17383575439453 2.999992370605469 22.72593688964844 C 2.999992370605469 14.27801704406738 17.9879150390625 -3.814697265625e-06 39.71111297607422 -3.814697265625e-06 Z" stroke="none" fill="#aaff7a"/>
        </g>
        <g id="パス_265" data-name="パス 265" transform="translate(30.978 68.047)" fill="#fff">
          <path d="M 69.42964172363281 52.63411712646484 C 62.75544357299805 52.63411712646484 55.08416366577148 51.77696228027344 47.82892227172852 50.22055053710938 C 40.22431564331055 48.58920288085938 33.57242202758789 46.26935577392578 29.09857559204102 43.68833160400391 C 25.25781440734863 41.47274780273438 21.83403205871582 38.81150817871094 18.92220497131348 35.77846527099609 C 16.35818481445313 33.10770416259766 14.17594528198242 30.1367244720459 12.43611907958984 26.94805145263672 C 10.91816234588623 24.16602897644043 9.75942325592041 21.2693977355957 8.992074966430664 18.33859443664551 C 8.343053817749023 15.85978984832764 8.00001049041748 13.42870235443115 8.00001049041748 11.308180809021 C 8.00001049041748 9.840115547180176 8.466444969177246 9.160050392150879 8.92270565032959 8.688420295715332 C 9.756205558776855 7.826876640319824 11.2910099029541 7.052376747131348 13.36118412017822 6.44863748550415 C 19.05324935913086 4.78865909576416 28.00107574462891 4.564855098724365 36.0031623840332 4.564855098724365 C 40.50290298461914 4.564855098724365 45.39875030517578 4.648333072662354 50.58207702636719 4.736724376678467 C 56.59242248535156 4.839224338531494 62.80739974975586 4.945202827453613 69.42964172363281 4.945202827453613 C 76.03048706054688 4.945202827453613 82.26364135742188 4.839681148529053 88.29153442382813 4.737659454345703 C 93.54103088378906 4.648789882659912 98.49940490722656 4.564855098724365 103.0730285644531 4.564855098724365 C 111.2131805419922 4.564855098724365 120.3230972290039 4.789615631103516 126.1709442138672 6.456681251525879 C 128.8880310058594 7.231267929077148 130.1832885742188 8.123485565185547 130.7914276123047 8.735550880432129 C 131.2572021484375 9.204376220703125 131.7333831787109 9.87663745880127 131.7333831787109 11.308180809021 C 131.7333831787109 14.53350734710693 130.4533081054688 20.24528884887695 126.8606643676758 26.6033763885498 C 124.1191864013672 31.45509338378906 119.0494232177734 38.37524795532227 110.4655532836914 43.79048538208008 C 108.1367950439453 45.25970458984375 105.3386154174805 46.58476638793945 102.1486434936523 47.72896194458008 C 99.08357238769531 48.82837677001953 95.64335632324219 49.76581192016602 91.92355346679688 50.51520156860352 C 85.04287719726563 51.90139770507813 77.26459503173828 52.63411712646484 69.42964172363281 52.63411712646484 Z" stroke="none"/>
          <path d="M 36.00312805175781 9.564861297607422 C 20.24333190917969 9.564861297607422 14.84085083007813 10.8702392578125 13.00901794433594 11.85351943969727 C 13.22328186035156 18.46055603027344 17.31996917724609 31.12145614624023 31.59712982177734 39.35738754272461 C 39.77605438232422 44.07588577270508 56.04049682617188 47.63409805297852 69.42963409423828 47.63409805297852 C 85.20365905761719 47.63409805297852 99.90536499023438 44.54096603393555 107.7977600097656 39.56164932250977 C 121.3911437988281 30.98611068725586 126.3314743041992 17.55949401855469 126.7078857421875 11.91536712646484 C 124.8104553222656 10.90242767333984 119.240852355957 9.564838409423828 103.0730743408203 9.564861297607422 C 98.50968933105469 9.564861297607422 93.58686828613281 9.648727416992188 88.37618255615234 9.7369384765625 C 82.39739990234375 9.838150024414063 76.04728698730469 9.945201873779297 69.42963409423828 9.945201873779297 C 62.79023742675781 9.945201873779297 56.44792175292969 9.837493896484375 50.49678802490234 9.736019134521484 C 45.34507751464844 9.648151397705078 40.49266052246094 9.564861297607422 36.00312805175781 9.564861297607422 M 36.00312042236328 -0.4351463317871094 C 45.68495941162109 -0.4351463317871094 57.03487396240234 -0.05479812622070313 69.42963409423828 -0.05479812622070313 C 81.82206726074219 -0.05479812622070313 93.26780700683594 -0.4351348876953125 103.0730743408203 -0.4351463317871094 C 123.4423828125 -0.4351615905761719 136.7333679199219 1.206142425537109 136.7333679199219 11.30817794799805 C 136.7333679199219 20.27207183837891 129.8811340332031 37.45375823974609 113.1333694458008 48.01928329467773 C 102.1859436035156 54.92601776123047 84.72244262695313 57.63409805297852 69.42963409423828 57.63409805297852 C 55.58621215820313 57.63409805297852 37.15102386474609 54.10628128051758 26.59999847412109 48.01928329467773 C 8.591873168945313 37.63112640380859 3 20.8408088684082 3 11.30817794799805 C 3 1.207054138183594 15.89579772949219 -0.4351463317871094 36.00312042236328 -0.4351463317871094 Z" stroke="none" fill="#aaff7a"/>
        </g>
        <g id="楕円形_78" data-name="楕円形 78" transform="translate(31 61)" fill="#fff" stroke="#aaff7a" stroke-width="10">
          <ellipse cx="69" cy="15.5" rx="69" ry="15.5" stroke="none"/>
          <ellipse cx="69" cy="15.5" rx="64" ry="10.5" fill="none"/>
        </g>
        <path id="パス_267" data-name="パス 267" d="M-.166-10.833s11.508,15.879,21.56,16.9S40.041-6.754,40.041-6.754,49.808,5.337,61.608,6.065,90.154-6.754,90.154-6.754s4.37,13.84,13.985,12.82,24.474-16.9,24.474-16.9" transform="translate(37.058 93.394)" fill="none" stroke="#aaff7a" stroke-linecap="round" stroke-width="5"/>
        <g id="パス_268" data-name="パス 268" transform="translate(139 74.615)" fill="none">
          <path d="M33.453,0C25.246,0,18.594,8.494,18.594,18.971S-6.561,44.719,1.646,44.719c3.529,0,18.478-1.163,28-5.333,12-5.253,18.666-14.442,18.666-20.414C48.313,8.494,41.66,0,33.453,0Z" stroke="none"/>
          <path d="M 33.45299911499023 10 C 31.51838302612305 10 28.59349060058594 13.57792472839355 28.59349060058594 18.97077941894531 C 28.59349060058594 23.09570121765137 27.06480407714844 26.97254753112793 24.7750301361084 30.58315658569336 C 25.06874847412109 30.46664237976074 25.35586547851563 30.34716796875 25.63534545898438 30.22478103637695 C 34.57436370849609 26.31087112426758 38.10734558105469 20.42128944396973 38.31249237060547 18.97077941894531 C 38.31249237060547 13.57792472839355 35.38761901855469 10 33.45299911499023 10 M 33.45299911499023 0 C 41.65967178344727 0 48.31249237060547 8.493507385253906 48.31249237060547 18.97077941894531 C 48.31249237060547 24.94285202026367 41.64310836791992 34.13240051269531 29.64618301391602 39.38520050048828 C 20.12363624572754 43.55519866943359 5.174583435058594 44.718505859375 1.645744323730469 44.718505859375 C -6.560943603515625 44.718505859375 18.59349060058594 29.44805335998535 18.59349060058594 18.97077941894531 C 18.59349060058594 8.493507385253906 25.24632835388184 0 33.45299911499023 0 Z" stroke="none" fill="#aaff7a"/>
        </g>
      </g>
    </g>
  </g>
</svg>
